<?xml version="1.0" encoding="UTF-8" standalone="no"?>
<!-- Created with Inkscape (http://www.inkscape.org/) -->

<svg
   xmlns:dc="http://purl.org/dc/elements/1.1/"
   xmlns:cc="http://creativecommons.org/ns#"
   xmlns:rdf="http://www.w3.org/1999/02/22-rdf-syntax-ns#"
   xmlns:svg="http://www.w3.org/2000/svg"
   xmlns="http://www.w3.org/2000/svg"
   xmlns:sodipodi="http://sodipodi.sourceforge.net/DTD/sodipodi-0.dtd"
   xmlns:inkscape="http://www.inkscape.org/namespaces/inkscape"
   width="210mm"
   height="148mm"
   viewBox="0 0 744.09449 524.40945"
   id="svg2"
   version="1.1"
   inkscape:version="0.91 r13725"
   sodipodi:docname="GameDrawing_Fig1.svg"
   inkscape:export-filename="/home/mlnode_main/Documents/Roblox_GuessGame/GameDrawing_Fig1.png"
   inkscape:export-xdpi="90"
   inkscape:export-ydpi="90">
  <defs
     id="defs4">
    <inkscape:path-effect
       effect="skeletal"
       id="path-effect4236"
       is_visible="true"
       pattern="m 0,532.95275 c 0,-2.76 2.24,-5 5,-5 2.76,0 5,2.24 5,5 0,2.76 -2.24,5 -5,5 -2.76,0 -5,-2.24 -5,-5 z"
       copytype="single_stretched"
       prop_scale="1"
       scale_y_rel="false"
       spacing="0"
       normal_offset="0"
       tang_offset="0"
       prop_units="false"
       vertical_pattern="false"
       fuse_tolerance="0" />
    <inkscape:path-effect
       effect="spiro"
       id="path-effect4234"
       is_visible="true" />
    <inkscape:path-effect
       effect="skeletal"
       id="path-effect4230"
       is_visible="true"
       pattern="m 0,532.95275 c 0,-2.76 2.24,-5 5,-5 2.76,0 5,2.24 5,5 0,2.76 -2.24,5 -5,5 -2.76,0 -5,-2.24 -5,-5 z"
       copytype="single_stretched"
       prop_scale="1"
       scale_y_rel="false"
       spacing="0"
       normal_offset="0"
       tang_offset="0"
       prop_units="false"
       vertical_pattern="false"
       fuse_tolerance="0" />
    <inkscape:path-effect
       effect="spiro"
       id="path-effect4228"
       is_visible="true" />
    <inkscape:path-effect
       effect="skeletal"
       id="path-effect4224"
       is_visible="true"
       pattern="m 0,532.95275 c 0,-2.76 2.24,-5 5,-5 2.76,0 5,2.24 5,5 0,2.76 -2.24,5 -5,5 -2.76,0 -5,-2.24 -5,-5 z"
       copytype="single_stretched"
       prop_scale="1"
       scale_y_rel="false"
       spacing="0"
       normal_offset="0"
       tang_offset="0"
       prop_units="false"
       vertical_pattern="false"
       fuse_tolerance="0" />
    <inkscape:path-effect
       effect="spiro"
       id="path-effect4222"
       is_visible="true" />
    <inkscape:path-effect
       effect="skeletal"
       id="path-effect4218"
       is_visible="true"
       pattern="m 0,532.95275 c 0,-2.76 2.24,-5 5,-5 2.76,0 5,2.24 5,5 0,2.76 -2.24,5 -5,5 -2.76,0 -5,-2.24 -5,-5 z"
       copytype="single_stretched"
       prop_scale="1"
       scale_y_rel="false"
       spacing="0"
       normal_offset="0"
       tang_offset="0"
       prop_units="false"
       vertical_pattern="false"
       fuse_tolerance="0" />
    <inkscape:path-effect
       effect="spiro"
       id="path-effect4216"
       is_visible="true" />
    <inkscape:path-effect
       effect="skeletal"
       id="path-effect4212"
       is_visible="true"
       pattern="m 0,532.95275 c 0,-2.76 2.24,-5 5,-5 2.76,0 5,2.24 5,5 0,2.76 -2.24,5 -5,5 -2.76,0 -5,-2.24 -5,-5 z"
       copytype="single_stretched"
       prop_scale="1"
       scale_y_rel="false"
       spacing="0"
       normal_offset="0"
       tang_offset="0"
       prop_units="false"
       vertical_pattern="false"
       fuse_tolerance="0" />
    <inkscape:path-effect
       effect="spiro"
       id="path-effect4210"
       is_visible="true" />
    <inkscape:path-effect
       effect="skeletal"
       id="path-effect4206"
       is_visible="true"
       pattern="m 0,532.95275 c 0,-2.76 2.24,-5 5,-5 2.76,0 5,2.24 5,5 0,2.76 -2.24,5 -5,5 -2.76,0 -5,-2.24 -5,-5 z"
       copytype="single_stretched"
       prop_scale="1"
       scale_y_rel="false"
       spacing="0"
       normal_offset="0"
       tang_offset="0"
       prop_units="false"
       vertical_pattern="false"
       fuse_tolerance="0" />
    <inkscape:path-effect
       effect="spiro"
       id="path-effect4204"
       is_visible="true" />
    <inkscape:path-effect
       effect="skeletal"
       id="path-effect4200"
       is_visible="true"
       pattern="m 0,532.95275 c 0,-2.76 2.24,-5 5,-5 2.76,0 5,2.24 5,5 0,2.76 -2.24,5 -5,5 -2.76,0 -5,-2.24 -5,-5 z"
       copytype="single_stretched"
       prop_scale="1"
       scale_y_rel="false"
       spacing="0"
       normal_offset="0"
       tang_offset="0"
       prop_units="false"
       vertical_pattern="false"
       fuse_tolerance="0" />
    <inkscape:path-effect
       effect="spiro"
       id="path-effect4198"
       is_visible="true" />
    <inkscape:path-effect
       effect="skeletal"
       id="path-effect4194"
       is_visible="true"
       pattern="m 0,532.95275 c 0,-2.76 2.24,-5 5,-5 2.76,0 5,2.24 5,5 0,2.76 -2.24,5 -5,5 -2.76,0 -5,-2.24 -5,-5 z"
       copytype="single_stretched"
       prop_scale="1"
       scale_y_rel="false"
       spacing="0"
       normal_offset="0"
       tang_offset="0"
       prop_units="false"
       vertical_pattern="false"
       fuse_tolerance="0" />
    <inkscape:path-effect
       effect="spiro"
       id="path-effect4192"
       is_visible="true" />
    <inkscape:path-effect
       effect="spiro"
       id="path-effect4188"
       is_visible="true" />
    <inkscape:path-effect
       effect="spiro"
       id="path-effect4184"
       is_visible="true" />
    <inkscape:path-effect
       effect="spiro"
       id="path-effect4180"
       is_visible="true" />
    <inkscape:path-effect
       effect="spiro"
       id="path-effect4176"
       is_visible="true" />
    <inkscape:path-effect
       effect="spiro"
       id="path-effect4172"
       is_visible="true" />
  </defs>
  <sodipodi:namedview
     id="base"
     pagecolor="#000000"
     bordercolor="#666666"
     borderopacity="1.0"
     inkscape:pageopacity="1"
     inkscape:pageshadow="2"
     inkscape:zoom="1.7430582"
     inkscape:cx="231.20284"
     inkscape:cy="262.20472"
     inkscape:document-units="px"
     inkscape:current-layer="layer1"
     showgrid="false"
     units="mm"
     showguides="false"
     inkscape:window-width="1920"
     inkscape:window-height="1113"
     inkscape:window-x="0"
     inkscape:window-y="24"
     inkscape:window-maximized="1" />
  <metadata
     id="metadata7">
    <rdf:RDF>
      <cc:Work
         rdf:about="">
        <dc:format>image/svg+xml</dc:format>
        <dc:type
           rdf:resource="http://purl.org/dc/dcmitype/StillImage" />
        <dc:title></dc:title>
      </cc:Work>
    </rdf:RDF>
  </metadata>
  <g
     inkscape:label="Layer 1"
     inkscape:groupmode="layer"
     id="layer1"
     transform="translate(0,-527.95275)">
    <path
       style="fill:#00ff00;fill-opacity:1;stroke:#00ff00;stroke-opacity:0"
       id="path4418"
       d="m 71.979074,779.82575 c 2.042536,-0.54058 4.1412,-0.80551 6.242278,-0.98169 1.707624,-0.12646 3.420487,-0.13966 5.131884,-0.14644 1.252838,-0.002 2.505674,0.003 3.758509,0.005 1.28384,0.002 2.567682,0.002 3.851523,0.002 1.228837,0.0814 2.42236,-0.0429 3.632135,-0.22709 1.169724,-0.18333 2.349206,-0.28069 3.531538,-0.32566 1.295225,-0.26345 2.609769,-0.39532 3.926579,-0.48761 1.74808,-0.18906 3.48456,0.0521 5.21769,0.25514 1.23869,0.15295 2.48651,0.18287 3.73289,0.20256 1.92684,0.0176 3.85381,0.013 5.78071,0.012 1.74925,0.0701 3.47557,-0.0205 5.20874,-0.23989 1.20072,-0.17 2.40716,-0.27192 3.61854,-0.31609 1.72194,-0.0831 3.43989,0.15946 5.13695,0.426 1.95569,0.28136 3.90205,0.60865 5.85229,0.92489 1.43606,0.25441 2.89604,0.26368 4.34097,0.4276 1.89502,0.30524 3.81452,0.37831 5.72966,0.43773 2.19481,0.16226 4.38372,0.38804 6.57955,0.53866 1.21546,-0.0181 2.39026,0.24735 3.56718,0.5119 0.33482,0.0858 0.67874,0.13112 1.02271,0.16048 6.06043,0.54678 5.54493,6.26062 -0.51551,5.71384 l 0,0 c -0.59343,-0.0548 -1.18559,-0.13667 -1.7654,-0.27695 -0.90118,-0.20257 -1.76453,-0.43294 -2.70205,-0.38571 -2.12476,-0.14608 -4.24372,-0.35446 -6.3662,-0.52799 -2.08944,-0.0661 -4.18343,-0.15067 -6.25156,-0.47798 -1.50924,-0.21463 -3.05868,-0.1386 -4.55905,-0.45874 -1.94673,-0.31663 -3.88926,-0.64347 -5.84185,-0.92319 -1.3282,-0.21943 -2.6754,-0.41831 -4.02378,-0.35712 -1.03945,0.0358 -2.07369,0.12769 -3.10379,0.27453 -1.9698,0.24816 -3.93782,0.35624 -5.92443,0.28508 -1.95861,0.001 -3.9173,0.006 -5.87585,-0.0128 -1.43873,-0.0235 -2.87872,-0.0645 -4.30846,-0.24082 -1.38252,-0.16204 -2.76133,-0.39197 -4.15679,-0.22963 -1.38005,0.0924 -2.739403,0.30219 -4.107571,0.49717 -0.96459,0.0345 -1.92658,0.11466 -2.880792,0.26431 -1.49312,0.22699 -2.983084,0.36912 -4.49604,0.29236 -1.286961,-2.2e-4 -2.573922,-4.2e-4 -3.860882,-0.002 -1.241897,-0.002 -2.483794,-0.007 -3.725694,-0.005 -1.561207,0.006 -3.1238,0.0153 -4.681802,0.12699 -1.728437,0.14036 -3.455033,0.35179 -5.138738,0.78044 -5.850925,1.67169 -7.427011,-3.84461 -1.576087,-5.5163 z"
       inkscape:connector-curvature="0" />
    <path
       style="fill:#00ff00;fill-opacity:1;stroke:#00ff00;stroke-opacity:0"
       id="path4420"
       d="m 175.25613,781.6707 c 1.58535,-0.70228 3.18788,-1.36759 4.85271,-1.85731 1.33435,-0.36208 2.70973,-0.49151 4.08638,-0.53688 1.1086,-0.0197 2.21747,-0.009 3.32616,-0.004 1.46536,0.005 2.93073,0.006 4.39609,0.006 1.73023,5.6e-4 3.46046,4.8e-4 5.19069,4.6e-4 1.87595,-4e-5 3.75189,-6e-5 5.62784,-8e-5 2.29334,-0.083 4.57345,0.0885 6.85714,0.26868 2.48681,0.1962 4.98156,0.25019 7.47488,0.28637 2.34839,0.0258 4.69696,0.0231 7.04546,0.0224 2.24064,-0.001 4.48129,-0.003 6.72194,-0.003 1.90636,-0.0508 3.82221,0.0937 5.72414,-0.0618 1.70796,-0.19554 3.41878,-0.35655 5.13571,-0.44427 1.70027,-0.0708 3.40245,-0.0692 5.10387,-0.072 1.91358,-0.0804 3.80872,0.0631 5.70738,0.28109 1.40421,0.18051 2.81848,0.24181 4.23246,0.27843 1.07273,0.025 2.14583,0.0224 3.21878,0.0217 0.82293,-8.6e-4 1.64586,-0.002 2.46879,-0.003 0.11552,-1.6e-4 0.23103,-3.5e-4 0.34655,-5.5e-4 6.08504,-0.0139 6.09818,5.72309 0.0131,5.73703 l 0,0 c -0.11708,2e-4 -0.23416,4e-4 -0.35124,5.6e-4 -0.82459,0.001 -1.64917,0.002 -2.47375,0.003 -1.12418,6.8e-4 -2.24852,0.003 -3.37247,-0.0237 -1.5825,-0.0419 -3.16515,-0.11419 -4.73689,-0.31393 -1.67939,-0.193 -3.34958,-0.32719 -5.04348,-0.24363 -1.60822,0.003 -3.21714,2.9e-4 -4.82436,0.0647 -1.67632,0.0831 -3.345,0.25454 -5.01316,0.43677 -2.04186,0.13376 -4.08836,0.0576 -6.1338,0.0766 -2.24061,6.5e-4 -4.48122,0.002 -6.72183,0.003 -2.37694,7.3e-4 -4.75396,0.003 -7.1308,-0.023 -2.61599,-0.0383 -5.23338,-0.097 -7.84248,-0.30353 -2.13414,-0.16835 -4.26232,-0.33702 -6.40594,-0.2509 -1.87594,1e-5 -3.75188,3e-5 -5.62781,7e-5 -1.73116,2e-5 -3.46232,1.1e-4 -5.19348,-4.6e-4 -1.47196,-6.9e-4 -2.94392,-0.001 -4.41588,-0.006 -1.04138,-0.004 -2.0829,-0.014 -3.12422,0.002 -0.89876,0.0261 -1.79828,0.0932 -2.67346,0.31428 -1.33538,0.37503 -2.60155,0.94429 -3.87938,1.47705 -5.44263,2.72132 -8.00832,-2.41005 -2.56568,-5.13137 z"
       inkscape:connector-curvature="0" />
    <path
       style="fill:#00ff00;fill-opacity:1;stroke:#00ff00;stroke-opacity:0"
       id="path4422"
       d="m 277.93892,781.54686 c 1.32174,-0.40282 2.65756,-0.74783 4.02336,-0.95963 1.40192,-0.17791 2.81861,-0.16344 4.22904,-0.1685 1.4889,-0.002 2.9778,0.003 4.4667,0.005 1.54987,0.002 3.09974,0.002 4.6496,0.002 1.42896,1.3e-4 2.85792,10e-5 4.28688,8e-5 1.1378,-2e-5 2.2756,-3e-5 3.4134,-4e-5 1.55831,0 3.11662,0 4.67493,0 1.91657,0 3.83314,0 5.7497,0 1.48164,0 2.96327,0 4.44491,0 1.46168,-0.0345 2.93004,0.0742 4.38714,-0.0598 1.86016,-0.21906 3.72695,-0.35904 5.5975,-0.44624 1.38701,0.0426 2.73953,-0.23994 4.11016,-0.39851 1.97712,-0.23316 3.95659,-0.23248 5.93659,-0.0622 1.72131,0.19285 3.4496,0.29543 5.18002,0.35456 1.78285,0.0548 3.56555,-0.002 5.34539,0.11883 1.88317,0.21324 3.77119,0.35467 5.66443,0.43214 1.99257,0.0641 3.9865,0.0624 5.97987,0.0651 1.79103,7.5e-4 3.58205,-0.001 5.37307,-0.003 1.1104,-7.3e-4 2.2208,-10e-4 3.3312,-10e-4 0.67076,-6e-5 1.34152,-5e-5 2.01227,-4e-5 0.13417,10e-6 0.26834,10e-6 0.40251,2e-5 0.002,0 0.003,0 0.005,0 6.08506,9.3e-4 6.08418,5.73797 -8.7e-4,5.73704 l 0,0 c -0.002,0 -0.003,0 -0.005,0 -0.13404,-1e-5 -0.26807,-1e-5 -0.40211,-1e-5 -0.67046,-2e-5 -1.34093,-3e-5 -2.0114,3e-5 -1.10938,1.5e-4 -2.21876,5e-4 -3.32814,10e-4 -1.79487,10e-4 -3.58974,0.003 -5.38461,0.003 -2.06953,-0.003 -4.13964,-10e-4 -6.20828,-0.0699 -1.95635,-0.0811 -3.90838,-0.21995 -5.85415,-0.44311 -1.70022,-0.14438 -3.41268,-0.0188 -5.11683,-0.10639 -1.8314,-0.0634 -3.66087,-0.17022 -5.48279,-0.373 -1.59676,-0.14262 -3.19031,-0.14159 -4.78604,0.047 -1.49712,0.16789 -2.98047,0.46983 -4.49502,0.42935 -1.80969,0.0833 -3.61473,0.22548 -5.41451,0.43483 -1.61018,0.11338 -3.22209,0.074 -4.83574,0.0774 -1.48164,0 -2.96327,0 -4.44491,0 -1.91656,0 -3.83313,0 -5.7497,0 -1.5583,0 -3.11661,0 -4.67491,10e-6 -1.13778,0 -2.27555,10e-6 -3.41332,3e-5 -1.42923,3e-5 -2.85846,5e-5 -4.28769,-7e-5 -1.55272,-2e-4 -3.10543,-2e-4 -4.65815,-0.002 -1.47908,-0.002 -2.95815,-0.007 -4.43723,-0.005 -1.13243,0.004 -2.26948,-0.0122 -3.39729,0.10492 -1.12366,0.15945 -2.21156,0.48608 -3.29923,0.8025 -5.85093,1.6717 -7.42701,-3.84461 -1.57609,-5.5163 z"
       inkscape:connector-curvature="0" />
    <path
       style="fill:#00ff00;fill-opacity:1;stroke:#00ff00;stroke-opacity:0"
       id="path4424"
       d="m 387.7921,781.78101 c 1.79742,-1.21609 3.85395,-1.81442 5.96388,-2.19959 1.74333,-0.26123 3.50775,-0.30247 5.26717,-0.31763 1.21285,-0.003 2.42568,0.006 3.63851,0.0102 1.14009,-0.007 2.27205,-0.0239 3.40492,0.10509 1.08301,0.24744 2.18324,0.35036 3.28955,0.41406 1.19649,0.0573 2.39463,0.0605 3.59221,0.0634 1.21198,0.0296 2.40928,0.0112 3.6109,-0.1433 1.55508,-0.22654 3.12358,-0.33088 4.6926,-0.39477 1.65916,-0.0477 3.31929,-0.0431 4.97897,-0.0435 1.61832,7.2e-4 3.23664,0.002 4.85496,0.003 1.5355,7.2e-4 3.07101,7.9e-4 4.60651,8.5e-4 1.57536,0.0244 3.13972,0.0231 4.70616,-0.14707 1.64207,-0.20903 3.2936,-0.32152 4.94691,-0.3873 1.16284,-0.20971 2.32849,-0.38831 3.50486,-0.50062 1.34222,-0.10876 2.68994,-0.10942 4.03561,-0.11562 1.22508,-0.003 2.45016,5e-5 3.67524,10e-4 1.12714,0.001 2.25429,0.002 3.38143,0.002 0.91288,1.2e-4 1.82576,10e-5 2.73864,9e-5 0.88299,0.005 1.69372,0.35841 2.54194,0.53468 0.45493,0.0323 0.91082,0.0372 1.36668,0.0415 0.57502,0.003 1.15004,5.9e-4 1.72506,-7.4e-4 0.76691,-10e-4 1.53382,-0.002 2.30073,-0.002 0.33519,-8e-5 0.67039,-1.1e-4 1.00558,-9e-5 0.16207,0 0.32413,10e-6 0.48619,2e-5 0.0164,0 0.0328,0 0.0492,0 0.14651,1.90557 0.29302,3.81114 0.43953,5.71672 -5.89636,1.50358 -7.31395,-4.05556 -1.41759,-5.55915 l 0,0 c 0.32592,1.85983 0.65185,3.71965 0.97777,5.57947 -0.0164,0 -0.0328,0 -0.0491,0 -0.16204,-10e-6 -0.32408,-2e-5 -0.48612,-2e-5 -0.33464,-10e-6 -0.66928,2e-5 -1.00393,10e-5 -0.763,1.9e-4 -1.526,3.5e-4 -2.28899,0.002 -0.59819,10e-4 -1.19638,0.004 -1.79456,4.8e-4 -0.84345,-0.008 -1.69264,-0.0142 -2.52449,-0.17119 -0.27218,-0.0601 -1.20791,-0.20566 -1.43102,-0.37914 -0.028,-0.0218 0.0688,-0.0171 0.10325,-0.0256 -0.91323,10e-6 -1.82647,3e-5 -2.7397,-8e-5 -1.12896,-2e-4 -2.25792,-4.8e-4 -3.38688,-0.002 -1.2142,-10e-4 -2.42841,-0.004 -3.64261,-10e-4 -1.17574,0.005 -2.35328,0.003 -3.52646,0.0906 -1.2804,0.11703 -2.53694,0.37959 -3.81423,0.5212 -1.52504,0.0595 -3.04821,0.16482 -4.56263,0.3592 -1.76984,0.18694 -3.53768,0.21379 -5.31662,0.17963 -1.53643,-6e-5 -3.07285,-1.4e-4 -4.60928,-8.5e-4 -1.61677,-8.4e-4 -3.23355,-0.003 -4.85032,-0.003 -1.58324,4.5e-4 -3.16688,-0.004 -4.74967,0.0389 -1.4059,0.0559 -2.81139,0.14855 -4.20445,0.35417 -1.4453,0.18003 -2.88778,0.22758 -4.34369,0.18854 -1.30525,-0.003 -2.61111,-0.008 -3.91505,-0.0732 -1.27626,-0.0762 -2.55133,-0.18622 -3.80164,-0.4673 -0.82903,-0.07 -1.72354,-0.0276 -2.57729,-0.042 -1.18978,-0.004 -2.37957,-0.013 -3.56936,-0.0103 -1.43915,0.0117 -2.8822,0.0372 -4.3108,0.2292 -1.33594,0.22845 -2.64538,0.55496 -3.78607,1.32469 -5.06307,3.37538 -8.24541,-1.39813 -3.18234,-4.77351 z"
       inkscape:connector-curvature="0" />
    <path
       style="fill:#00ff00;fill-opacity:1;stroke:#00ff00;stroke-opacity:0"
       id="path4428"
       d="m 488.76406,781.78101 c 1.84509,-1.26328 4.00667,-1.73675 6.1428,-2.23714 2.16834,-0.44365 4.3675,-0.74391 6.56275,-1.02596 2.31682,-0.27564 4.65091,-0.33689 6.98141,-0.37585 1.86396,0.0722 3.70632,-0.0952 5.5586,-0.26362 2.44935,-0.13527 4.88372,-0.43616 7.32781,-0.63805 1.99083,-0.16345 3.98754,-0.22366 5.98418,-0.25205 1.78677,0.0527 3.55825,-0.20024 5.33566,-0.34412 1.87217,-0.14597 3.74977,-0.1981 5.62686,-0.22618 1.31565,-0.0151 2.63141,-0.0119 3.94712,-0.0107 1.36928,10e-4 2.73855,0.002 4.10783,0.003 0.84483,2.9e-4 1.68966,3.3e-4 2.53449,3.4e-4 1.15566,-0.0401 2.29322,0.0126 3.43402,0.2053 1.0464,0.25363 2.12153,0.28804 3.18444,0.4276 1.74717,0.29977 3.52243,0.3305 5.27841,0.54627 1.21937,0.2488 2.45902,0.3734 3.67888,0.61249 1.16781,0.3182 2.37473,0.38509 3.57702,0.44764 1.16084,0.0509 2.3229,0.0587 3.48466,0.0606 1.18291,0.10997 2.34038,0.36934 3.52375,0.4788 0.84546,0.0775 1.69501,0.0857 2.54334,0.0923 0.78605,0.003 1.5721,9.5e-4 2.35814,-7.1e-4 0.13896,-1.5e-4 0.27792,-7.1e-4 0.41687,-10e-4 6.08491,-0.0422 6.12465,5.69475 0.0397,5.7369 l 0,0 c -0.14816,5.2e-4 -0.29632,10e-4 -0.44448,10e-4 -0.80522,0.002 -1.61045,0.004 -2.41567,5.4e-4 -1.01459,-0.008 -2.03036,-0.0228 -3.04128,-0.11791 -1.00264,-0.0973 -2.00911,-0.21887 -2.98975,-0.45303 -1.25969,-0.002 -2.51971,-0.0116 -3.77833,-0.0686 -1.49791,-0.0803 -3.00129,-0.18325 -4.45892,-0.56333 -1.05245,-0.26822 -2.17408,-0.25844 -3.22909,-0.53608 -1.77077,-0.24662 -3.57619,-0.21911 -5.33873,-0.55439 -1.11806,-0.1748 -2.26424,-0.16582 -3.36673,-0.45612 -0.81474,-0.14608 -1.62582,-0.1413 -2.45635,-0.12137 -0.84554,-10e-6 -1.69108,-5e-5 -2.53662,-3.3e-4 -1.37031,-5.3e-4 -2.74063,-10e-4 -4.11094,-0.003 -1.28551,-0.001 -2.57107,-0.004 -3.85653,0.01 -1.75157,0.0259 -3.50369,0.073 -5.25075,0.20823 -1.90349,0.15305 -3.80238,0.41547 -5.71607,0.36213 -1.8665,0.0262 -3.73311,0.0808 -5.59422,0.23326 -2.42805,0.19938 -4.84643,0.5005 -7.27971,0.63389 -1.99233,0.18077 -3.97859,0.35276 -5.98246,0.28635 -2.11895,0.0349 -4.24145,0.0852 -6.34857,0.33027 -2.00129,0.25481 -4.00535,0.5305 -5.98414,0.92155 -1.46464,0.34212 -2.98439,0.57999 -4.2671,1.42439 -5.06307,3.37538 -8.24541,-1.39813 -3.18234,-4.77351 z"
       inkscape:connector-curvature="0" />
    <path
       style="fill:#00ff00;fill-opacity:1;stroke:#00ff00;stroke-opacity:0"
       id="path4430"
       d="m 594.43237,781.53395 c 1.96816,-0.28086 3.95422,-0.38904 5.93893,-0.46717 2.03971,-0.0652 4.08073,-0.0675 6.12127,-0.0706 1.59598,-7.7e-4 3.19196,10e-4 4.78794,0.003 1.57375,9.6e-4 3.1475,10e-4 4.72125,10e-4 1.63099,0.11105 3.24575,0.36203 4.87663,0.47704 1.27794,0.0807 2.55868,0.0927 3.83871,0.0991 1.77072,-0.0736 3.52604,0.0936 5.28458,0.27415 1.69783,0.009 3.39286,-0.11784 5.08857,-0.18898 1.89034,-0.0743 3.78245,-0.0794 5.67396,-0.0863 2.43168,-0.005 4.86337,-0.003 7.29505,-0.003 2.07499,0.0277 4.13772,-0.25588 6.20456,-0.40702 2.01366,-0.1301 4.03202,-0.15033 6.04914,-0.16433 1.73878,-0.008 3.47758,-0.005 5.21637,-0.004 0.93391,10e-4 1.86782,0.002 2.80173,0.002 0.98326,2.6e-4 1.96651,1.9e-4 2.94977,1.9e-4 1.1087,0 2.2174,-10e-6 3.3261,-2e-5 0.77215,0 1.5443,0 2.31646,0 0.53793,0 1.07586,0 1.61378,0 0.003,0 0.006,0 0.008,0 6.08505,10e-6 6.08503,5.73706 -2e-5,5.73704 l 0,0 c -0.003,0 -0.006,0 -0.008,0 -0.53793,0 -1.07585,0 -1.61378,0 -0.77214,0 -1.54428,0 -2.31642,0 -1.10871,10e-6 -2.21742,2e-5 -3.32613,3e-5 -0.98399,0 -1.96798,7e-5 -2.95197,-2e-4 -0.93504,-3.6e-4 -1.87008,-10e-4 -2.80512,-0.002 -1.72372,-0.002 -3.44746,-0.004 -5.17117,0.003 -1.89132,0.013 -3.78383,0.0302 -5.67208,0.14931 -2.20599,0.15991 -4.40737,0.46123 -6.62278,0.42218 -2.42426,-6.6e-4 -4.84852,-0.002 -7.27278,0.003 -1.81846,0.007 -3.63751,0.0107 -5.45488,0.0813 -1.9702,0.0822 -3.94167,0.24978 -5.9144,0.16399 -1.57464,-0.1617 -3.14127,-0.32288 -4.7277,-0.24422 -1.40655,-0.007 -2.81385,-0.0224 -4.21796,-0.11359 -1.49497,-0.10777 -2.97962,-0.29532 -4.46865,-0.46249 -1.57491,-1.1e-4 -3.14983,-2.6e-4 -4.72474,-10e-4 -1.59179,-10e-4 -3.18359,-0.003 -4.77539,-0.003 -1.96859,0.003 -3.93765,0.005 -5.90548,0.0662 -1.78837,0.0696 -3.57833,0.16237 -5.35203,0.4139 -6.0239,0.86055 -6.83524,-4.81883 -0.81134,-5.67938 z"
       inkscape:connector-curvature="0" />
    <path
       style="fill:#00ff00;fill-opacity:1;stroke:#00ff00;stroke-opacity:0"
       id="path4432"
       d="m 471.89728,778.80267 c 0.95988,0.12392 0.46249,0.0631 1.49235,0.18114 6.04519,0.69536 5.3896,6.39482 -0.65559,5.69946 l 0,0 c -1.1358,-0.13102 -0.5865,-0.0634 -1.6481,-0.20121 -6.02389,-0.86056 -5.21255,-6.53994 0.81134,-5.67939 z"
       inkscape:connector-curvature="0" />
  </g>
</svg>
