<?xml version="1.0" encoding="UTF-8" standalone="no"?>
<!-- Created with Inkscape (http://www.inkscape.org/) -->

<svg
   xmlns:dc="http://purl.org/dc/elements/1.1/"
   xmlns:cc="http://creativecommons.org/ns#"
   xmlns:rdf="http://www.w3.org/1999/02/22-rdf-syntax-ns#"
   xmlns:svg="http://www.w3.org/2000/svg"
   xmlns="http://www.w3.org/2000/svg"
   xmlns:sodipodi="http://sodipodi.sourceforge.net/DTD/sodipodi-0.dtd"
   xmlns:inkscape="http://www.inkscape.org/namespaces/inkscape"
   width="210mm"
   height="148mm"
   viewBox="0 0 744.09449 524.40945"
   id="svg2"
   version="1.1"
   inkscape:version="0.91 r13725"
   sodipodi:docname="GuessTheWord_Fig1.svg"
   inkscape:export-filename="/home/mlnode_main/Documents/Roblox_GuessGame/GuessTheWord_Fig1.png"
   inkscape:export-xdpi="90"
   inkscape:export-ydpi="90">
  <defs
     id="defs4">
    <inkscape:path-effect
       effect="skeletal"
       id="path-effect4236"
       is_visible="true"
       pattern="m 0,532.95275 c 0,-2.76 2.24,-5 5,-5 2.76,0 5,2.24 5,5 0,2.76 -2.24,5 -5,5 -2.76,0 -5,-2.24 -5,-5 z"
       copytype="single_stretched"
       prop_scale="1"
       scale_y_rel="false"
       spacing="0"
       normal_offset="0"
       tang_offset="0"
       prop_units="false"
       vertical_pattern="false"
       fuse_tolerance="0" />
    <inkscape:path-effect
       effect="spiro"
       id="path-effect4234"
       is_visible="true" />
    <inkscape:path-effect
       effect="skeletal"
       id="path-effect4230"
       is_visible="true"
       pattern="m 0,532.95275 c 0,-2.76 2.24,-5 5,-5 2.76,0 5,2.24 5,5 0,2.76 -2.24,5 -5,5 -2.76,0 -5,-2.24 -5,-5 z"
       copytype="single_stretched"
       prop_scale="1"
       scale_y_rel="false"
       spacing="0"
       normal_offset="0"
       tang_offset="0"
       prop_units="false"
       vertical_pattern="false"
       fuse_tolerance="0" />
    <inkscape:path-effect
       effect="spiro"
       id="path-effect4228"
       is_visible="true" />
    <inkscape:path-effect
       effect="skeletal"
       id="path-effect4224"
       is_visible="true"
       pattern="m 0,532.95275 c 0,-2.76 2.24,-5 5,-5 2.76,0 5,2.24 5,5 0,2.76 -2.24,5 -5,5 -2.76,0 -5,-2.24 -5,-5 z"
       copytype="single_stretched"
       prop_scale="1"
       scale_y_rel="false"
       spacing="0"
       normal_offset="0"
       tang_offset="0"
       prop_units="false"
       vertical_pattern="false"
       fuse_tolerance="0" />
    <inkscape:path-effect
       effect="spiro"
       id="path-effect4222"
       is_visible="true" />
    <inkscape:path-effect
       effect="skeletal"
       id="path-effect4218"
       is_visible="true"
       pattern="m 0,532.95275 c 0,-2.76 2.24,-5 5,-5 2.76,0 5,2.24 5,5 0,2.76 -2.24,5 -5,5 -2.76,0 -5,-2.24 -5,-5 z"
       copytype="single_stretched"
       prop_scale="1"
       scale_y_rel="false"
       spacing="0"
       normal_offset="0"
       tang_offset="0"
       prop_units="false"
       vertical_pattern="false"
       fuse_tolerance="0" />
    <inkscape:path-effect
       effect="spiro"
       id="path-effect4216"
       is_visible="true" />
    <inkscape:path-effect
       effect="skeletal"
       id="path-effect4212"
       is_visible="true"
       pattern="m 0,532.95275 c 0,-2.76 2.24,-5 5,-5 2.76,0 5,2.24 5,5 0,2.76 -2.24,5 -5,5 -2.76,0 -5,-2.24 -5,-5 z"
       copytype="single_stretched"
       prop_scale="1"
       scale_y_rel="false"
       spacing="0"
       normal_offset="0"
       tang_offset="0"
       prop_units="false"
       vertical_pattern="false"
       fuse_tolerance="0" />
    <inkscape:path-effect
       effect="spiro"
       id="path-effect4210"
       is_visible="true" />
    <inkscape:path-effect
       effect="skeletal"
       id="path-effect4206"
       is_visible="true"
       pattern="m 0,532.95275 c 0,-2.76 2.24,-5 5,-5 2.76,0 5,2.24 5,5 0,2.76 -2.24,5 -5,5 -2.76,0 -5,-2.24 -5,-5 z"
       copytype="single_stretched"
       prop_scale="1"
       scale_y_rel="false"
       spacing="0"
       normal_offset="0"
       tang_offset="0"
       prop_units="false"
       vertical_pattern="false"
       fuse_tolerance="0" />
    <inkscape:path-effect
       effect="spiro"
       id="path-effect4204"
       is_visible="true" />
    <inkscape:path-effect
       effect="skeletal"
       id="path-effect4200"
       is_visible="true"
       pattern="m 0,532.95275 c 0,-2.76 2.24,-5 5,-5 2.76,0 5,2.24 5,5 0,2.76 -2.24,5 -5,5 -2.76,0 -5,-2.24 -5,-5 z"
       copytype="single_stretched"
       prop_scale="1"
       scale_y_rel="false"
       spacing="0"
       normal_offset="0"
       tang_offset="0"
       prop_units="false"
       vertical_pattern="false"
       fuse_tolerance="0" />
    <inkscape:path-effect
       effect="spiro"
       id="path-effect4198"
       is_visible="true" />
    <inkscape:path-effect
       effect="skeletal"
       id="path-effect4194"
       is_visible="true"
       pattern="m 0,532.95275 c 0,-2.76 2.24,-5 5,-5 2.76,0 5,2.24 5,5 0,2.76 -2.24,5 -5,5 -2.76,0 -5,-2.24 -5,-5 z"
       copytype="single_stretched"
       prop_scale="1"
       scale_y_rel="false"
       spacing="0"
       normal_offset="0"
       tang_offset="0"
       prop_units="false"
       vertical_pattern="false"
       fuse_tolerance="0" />
    <inkscape:path-effect
       effect="spiro"
       id="path-effect4192"
       is_visible="true" />
    <inkscape:path-effect
       effect="spiro"
       id="path-effect4188"
       is_visible="true" />
    <inkscape:path-effect
       effect="spiro"
       id="path-effect4184"
       is_visible="true" />
    <inkscape:path-effect
       effect="spiro"
       id="path-effect4180"
       is_visible="true" />
    <inkscape:path-effect
       effect="spiro"
       id="path-effect4176"
       is_visible="true" />
    <inkscape:path-effect
       effect="spiro"
       id="path-effect4172"
       is_visible="true" />
  </defs>
  <sodipodi:namedview
     id="base"
     pagecolor="#000000"
     bordercolor="#666666"
     borderopacity="1.0"
     inkscape:pageopacity="1"
     inkscape:pageshadow="2"
     inkscape:zoom="1.7430582"
     inkscape:cx="235.79247"
     inkscape:cy="261.63102"
     inkscape:document-units="px"
     inkscape:current-layer="layer1"
     showgrid="false"
     units="mm"
     showguides="false"
     inkscape:window-width="1920"
     inkscape:window-height="1113"
     inkscape:window-x="0"
     inkscape:window-y="24"
     inkscape:window-maximized="1" />
  <metadata
     id="metadata7">
    <rdf:RDF>
      <cc:Work
         rdf:about="">
        <dc:format>image/svg+xml</dc:format>
        <dc:type
           rdf:resource="http://purl.org/dc/dcmitype/StillImage" />
        <dc:title />
      </cc:Work>
    </rdf:RDF>
  </metadata>
  <g
     inkscape:label="Layer 1"
     inkscape:groupmode="layer"
     id="layer1"
     transform="translate(0,-527.95275)">
    <path
       style="fill:#00ff00;fill-opacity:1;stroke:#00ff00;stroke-opacity:0"
       id="path5200"
       d="m 72.77879,789.12023 c 1.682379,0.037 3.365243,-0.013 5.047376,-0.043 1.433714,-0.064 2.875634,0.042 4.304245,-0.1008 1.76531,-0.2352 3.540106,-0.3689 5.31853,-0.4471 1.580862,0.018 3.138386,-0.1055 4.7025,-0.3163 1.621021,-0.2167 3.256354,-0.2695 4.889378,-0.3048 1.641596,0.093 3.268111,0.3352 4.908231,0.4516 1.70597,0.1035 3.41618,0.1 5.12459,0.106 2.25502,0 4.51004,10e-4 6.76505,-10e-5 1.48522,0.1074 2.93939,-0.134 4.40306,-0.3341 1.18968,-0.1701 2.36243,-0.2669 3.54774,-0.042 0.83116,0.125 1.5894,0.4581 2.3079,0.8808 0.23903,0.1423 0.46528,0.3026 0.66623,0.4948 2.12804,2.1745 0.0779,4.1808 -2.05013,2.0064 l 0,0 c 0.19762,0.1846 0.0226,0.011 -0.0799,-0.034 -0.44391,-0.2671 -0.88488,-0.4745 -1.40879,-0.5355 -0.85905,-0.1912 -1.72716,-0.015 -2.59481,0.072 -1.59079,0.2172 -3.17661,0.4649 -4.78965,0.3605 -2.25906,0.001 -4.51813,0 -6.77719,1e-4 -1.77298,-0.01 -3.5478,0 -5.31815,-0.1132 -1.5518,-0.1112 -3.092314,-0.3184 -4.642457,-0.445 -1.525605,0.033 -3.053604,0.078 -4.568192,0.2798 -1.648975,0.2221 -3.294195,0.3547 -4.960106,0.3392 -1.732946,0.075 -3.461721,0.2093 -5.181877,0.4378 -1.501365,0.1285 -3.008297,0.069 -4.51404,0.1124 -1.834435,0.033 -3.671622,0.1026 -5.505241,0.015 -3.011947,-0.4303 -2.606277,-3.2699 0.40567,-2.8397 z"
       inkscape:connector-curvature="0" />
    <path
       style="fill:#00ff00;fill-opacity:1;stroke:#00ff00;stroke-opacity:0"
       id="path5204"
       d="m 145.25672,789.51199 c 1.59619,0.4602 3.24416,0.6769 4.89354,0.8323 1.02429,0.1467 1.99525,0.1208 2.99645,-0.097 0.79312,-0.21 1.60975,-0.2889 2.42639,-0.3307 0.96518,-0.032 1.93112,-0.027 2.89669,-0.027 0.77703,-0.1591 1.54983,-0.3347 2.33465,-0.4516 0.80547,-0.1016 1.61776,-0.1132 2.42837,-0.1208 0.95962,0 1.91926,-6e-4 2.87888,6e-4 1.0378,-0.035 2.08658,0.08 3.11758,-0.058 1.61356,-0.2564 3.24258,-0.3738 4.87313,-0.4481 1.58251,-0.075 3.15427,-0.1163 4.72464,0.1085 1.27883,0.204 2.56939,0.3051 3.86205,0.3622 1.17402,0.048 2.34216,-0.1855 3.50019,-0.3589 0.25626,0.029 1.59336,-0.3718 0.46993,0.013 0.81643,-0.5177 1.7673,-0.6249 2.70848,-0.6985 1.14966,0.019 2.26638,-0.1246 3.39633,-0.3109 1.21556,-0.2062 2.44696,-0.2726 3.67726,-0.3106 1.07043,-0.025 2.14123,-0.023 3.21187,-0.022 1.3059,0.081 2.5843,-0.058 3.87316,-0.2422 0.81589,-0.1102 1.63305,-0.2112 2.45151,-0.3004 0.16126,-0.023 0.32221,-0.03 0.48478,-0.03 0.56634,-0.053 1.08885,0.1638 1.61183,0.344 0.28556,0.096 0.57399,0.1835 0.86403,0.2651 0.32174,0.066 -1.55357,2.8282 -0.28514,2.8408 -2.90302,0.9108 -3.76167,-1.8262 -0.85865,-2.737 l 0,0 c 0.21681,-0.044 0.60505,-0.3503 0.65043,-0.1336 0.61217,2.9225 0.7711,3.0673 -0.27108,2.7945 -0.35451,-0.098 -0.70597,-0.2073 -1.05455,-0.3249 -1.01431,-0.3633 0.32629,-0.098 -0.71804,-0.181 0.19,-0.013 -0.0839,0.01 -0.11301,0.014 -0.7865,0.086 -1.57172,0.1828 -2.35578,0.2883 -1.42295,0.2036 -2.8411,0.3493 -4.28161,0.2711 -1.04067,-8e-4 -2.08149,0 -3.12197,0.021 -1.10338,0.033 -2.2081,0.089 -3.29838,0.2737 -1.21113,0.1997 -2.4161,0.3558 -3.64691,0.341 -0.43506,0.031 -0.86747,0.053 -1.2839,0.1912 -0.58347,0.2649 -1.04542,0.4284 -1.68588,0.4706 -1.3407,0.2007 -2.69241,0.4552 -4.05263,0.3878 -1.38806,-0.062 -2.77394,-0.1713 -4.14732,-0.3893 -1.38881,-0.2061 -2.7813,-0.136 -4.18198,-0.082 -1.56646,0.07 -3.1308,0.1857 -4.68074,0.4328 -1.14499,0.1157 -2.29289,0.073 -3.44294,0.076 -0.94974,-10e-4 -1.8995,0 -2.84924,-7e-4 -0.68074,0.01 -1.36286,0.013 -2.04001,0.091 -0.92287,0.1312 -1.82005,0.4019 -2.7509,0.4817 -0.91761,-5e-4 -1.83553,0 -2.75282,0.023 -0.66094,0.032 -1.32124,0.094 -1.96189,0.2694 -1.28851,0.2777 -2.56265,0.3226 -3.87408,0.1491 -1.82412,-0.174 -3.64575,-0.4199 -5.41076,-0.9298 -2.92547,-0.8358 -2.13742,-3.594 0.78804,-2.7582 z"
       inkscape:connector-curvature="0" />
    <path
       style="fill:#00ff00;fill-opacity:1;stroke:#00ff00;stroke-opacity:0"
       id="path5206"
       d="m 221.53624,789.84313 c 1.72453,-0.2507 3.46266,-0.3716 5.20214,-0.4534 1.59465,-0.061 3.19066,-0.067 4.78625,-0.07 1.403,-6e-4 2.806,10e-4 4.209,0 1.48891,-0.1784 2.97405,-0.3648 4.47092,-0.4653 1.73039,-0.015 3.44215,-0.1663 5.15993,-0.3602 1.61872,-0.1786 3.24534,-0.2604 4.87259,-0.303 1.26568,-0.026 2.53171,-0.022 3.79758,-0.021 1.58427,-0.1817 3.16729,-0.3585 4.75879,-0.4633 1.26061,-0.074 2.5233,-0.099 3.78582,-0.1089 0.61901,0 1.23803,-8e-4 1.85705,6e-4 0.82068,-0.01 1.6335,-0.016 2.4482,0.086 0.72717,0.1645 1.45164,0.3315 2.18945,0.4404 0.31684,0.057 0.63858,0.051 0.95916,0.053 1.00637,0 2.01274,0 3.01911,0 1.1637,-9e-4 2.3274,-0.001 3.4911,-0.001 0.57192,0.021 1.11667,0.027 1.60091,-0.111 0.58093,-0.1992 1.17702,-0.3375 1.78558,-0.4157 0.30851,-0.031 0.61834,-0.049 0.92837,-0.051 0.27388,0 0.54777,0 0.82166,0 0.78276,-0.071 1.51877,0.1896 2.25789,0.4025 0.34519,0.07 0.68969,0.1504 1.01717,0.2814 -0.57256,2.732 0.20534,2.747 -0.99806,2.7654 -3.04222,0.043 -3.08288,-2.8251 -0.0407,-2.8682 l 0,0 c 1.1076,-0.014 0.34687,-0.2143 -0.0957,2.7374 0.21901,0.082 -0.73478,-0.2184 -0.67683,-0.1596 -0.50635,-0.1459 -0.93758,-0.3531 -1.46884,-0.2904 -0.26736,-4e-4 -0.53474,-6e-4 -0.80208,0 -0.20217,0 -0.40418,0.013 -0.60555,0.031 -0.46553,0.044 -0.90992,0.1927 -1.35411,0.3307 -0.78433,0.215 -1.5596,0.2529 -2.36937,0.2159 -1.16304,10e-5 -2.32608,4e-4 -3.48912,10e-4 -1.01213,8e-4 -2.02425,0 -3.03638,0 -0.45634,0 -0.91402,-0.01 -1.3652,-0.084 -0.73827,-0.11 -1.46831,-0.2593 -2.19244,-0.4409 -0.66145,-0.141 -1.35828,-0.01 -2.03048,-0.055 -0.60982,-0.001 -1.21964,0 -1.82946,-6e-4 -1.20704,0.01 -2.41423,0.032 -3.61948,0.1028 -1.65485,0.108 -3.29785,0.3154 -4.94842,0.4695 -1.24034,-8e-4 -2.48082,0 -3.72098,0.021 -1.54468,0.04 -3.08879,0.1168 -4.62542,0.2858 -1.76095,0.1988 -3.51765,0.3551 -5.2912,0.372 -1.56137,0.1031 -3.10665,0.3263 -4.66365,0.4717 -1.40047,-10e-4 -2.80095,0 -4.20142,0 -1.55267,0 -3.10574,0.01 -4.65752,0.067 -1.64867,0.077 -3.29611,0.1901 -4.93062,0.4277 -3.01195,0.4303 -3.41762,-2.4094 -0.40567,-2.8397 z"
       inkscape:connector-curvature="0" />
    <path
       style="fill:#00ff00;fill-opacity:1;stroke:#00ff00;stroke-opacity:0"
       id="path5208"
       d="m 300.91027,789.41564 c 1.61863,0.079 3.2192,-0.1742 4.82431,-0.3381 1.48375,-0.1453 2.9688,-0.1497 4.44318,-0.3751 1.33269,-0.2218 2.67138,-0.4012 4.02248,-0.3279 1.19265,0.1821 2.3851,0.3306 3.58962,0.401 1.1603,0.1536 2.29609,0.4266 3.46122,0.547 1.00968,0.018 1.99065,0.1916 2.97897,0.3827 0.87171,0.165 1.76629,-0.043 2.63845,-0.14 0.87135,-0.1043 1.74897,-0.1314 2.62559,-0.1446 1.33049,-0.011 2.66105,-0.01 3.99157,-0.01 1.20915,0.073 2.37865,-0.014 3.56322,-0.234 1.08444,-0.1259 2.12911,-0.4376 3.19987,-0.6399 1.10709,-0.2739 2.27635,-0.1061 3.38485,-0.3188 0.88066,-0.2088 1.76825,-0.3663 2.66834,-0.4583 0.83419,-0.069 1.67196,-0.07 2.50841,-0.072 0.89363,-10e-5 1.78726,0 2.6809,0 0.95611,-0.035 1.88597,0 2.82232,0.1979 0.64136,0.1715 1.2932,0.2921 1.95477,0.345 0.54446,0.038 1.09067,0.036 1.63614,0.036 0.73185,-0.064 1.40369,0.1799 2.0304,0.5324 1.11199,0.6775 0.51637,0.6346 0.23883,2.7354 -2.54694,1.6643 -4.1161,-0.7369 -1.56916,-2.4013 l 0,0 c -0.0172,0.6483 0.38843,2.5333 -0.0967,2.1543 -0.0769,-0.046 -0.3059,-0.085 -0.23235,-0.1363 0.0371,-0.026 0.17968,-0.01 0.13498,-0.017 -0.1671,-0.028 -0.34183,0.036 -0.50845,10e-4 -0.62506,-6e-4 -1.25095,0 -1.87467,-0.046 -0.78648,-0.069 -1.56529,-0.1964 -2.32859,-0.4016 -0.7311,-0.1636 -1.45831,-0.1492 -2.2105,-0.1312 -0.89003,-9e-4 -1.78006,0 -2.67009,0 -0.7426,0 -1.48631,10e-4 -2.22723,0.058 -0.84785,0.085 -1.67933,0.2505 -2.51045,0.4379 -1.09671,0.1549 -2.20973,0.1124 -3.30385,0.3048 -1.0721,0.1985 -2.11834,0.5169 -3.20412,0.6407 -1.3566,0.2517 -2.70643,0.3564 -4.08829,0.2822 -1.31588,-6e-4 -2.6318,0 -3.94766,0.01 -0.78493,0.011 -1.57095,0.034 -2.35116,0.1274 -1.16078,0.1287 -2.33947,0.359 -3.50044,0.1053 -0.9099,-0.1762 -1.80203,-0.3385 -2.73395,-0.3462 -1.12102,-0.1196 -2.22046,-0.3449 -3.33026,-0.5363 -1.21595,-0.072 -2.42335,-0.2051 -3.6256,-0.4033 -1.12944,-0.1206 -2.2698,0.1715 -3.3872,0.3028 -1.52166,0.2292 -3.05065,0.2578 -4.58216,0.3927 -1.70154,0.1735 -3.39979,0.4333 -5.11555,0.353 -3.04253,0 -3.04253,-2.8686 0,-2.8686 z"
       inkscape:connector-curvature="0" />
    <path
       style="fill:#00ff00;fill-opacity:1;stroke:#00ff00;stroke-opacity:0"
       id="path5210"
       d="m 371.65558,788.64523 c 1.48608,-0.4276 2.9995,-0.7244 4.53143,-0.9243 1.00437,-0.1215 2.01626,-0.1422 3.02664,-0.1487 0.91571,-10e-4 1.83143,0 2.74715,0 1.09038,0 2.18077,0 3.27116,0 1.09851,-0.01 2.17871,-0.2711 3.26848,-0.4051 1.28302,-0.1432 2.5751,-0.1547 3.86447,-0.1674 1.40754,-0.01 2.81511,0 4.22266,0 1.16717,10e-4 2.33433,0 3.50149,0 1.06307,0 2.1233,-0.038 3.18052,0.081 1.10603,0.2192 2.22036,0.3637 3.34529,0.4314 1.39979,0.079 2.8016,0.014 4.19775,0.1412 1.31511,0.2238 2.64833,0.3111 3.96458,0.5183 1.29332,0.2692 2.60172,0.4163 3.91892,0.4915 1.48565,0.062 2.97292,0.061 4.45957,0.063 1.21147,-0.08 2.38873,0.1217 3.53985,0.4816 1.19196,0.4187 2.45685,0.4743 3.692,0.677 0.97436,0.2156 1.9533,0.4029 2.94593,0.5078 0.36661,0.042 0.73526,0.053 1.10393,0.055 0.11356,-10e-5 0.1978,0 0.30259,0 -1.52893,0.5451 -0.15721,-0.1053 0.181,-0.3566 0.0908,-0.1685 2.0973,-1.0773 0.86804,-0.4219 0.19919,1.008 1.28508,2.4732 0.36892,2.471 -3.03958,-0.134 -2.91332,-2.9997 0.12626,-2.8658 l 0,0 c 1.34034,0.074 0.76001,0.2159 1.34835,2.5925 -0.35468,0.2047 -0.69879,0.3313 -1.01519,0.5373 -0.58909,0.4285 -1.137,0.7187 -1.85549,0.912 -0.11313,0.001 -0.22647,0.01 -0.33971,0 -0.46525,0 -0.93046,-0.019 -1.39314,-0.071 -1.04948,-0.1129 -2.08754,-0.2981 -3.11705,-0.5313 -1.3737,-0.2381 -2.78558,-0.292 -4.10901,-0.7798 -0.85793,-0.3058 -1.74385,-0.3899 -2.65105,-0.3392 -1.54049,0 -3.08166,0 -4.62104,-0.068 -1.41561,-0.082 -2.82321,-0.2363 -4.2136,-0.5239 -1.25396,-0.2123 -2.53312,-0.2647 -3.78624,-0.4949 -1.35706,-0.1488 -2.7307,-0.024 -4.09232,-0.1328 -1.18774,-0.074 -2.36781,-0.2128 -3.5352,-0.4495 -0.92611,-0.1504 -1.88062,-0.01 -2.81528,-0.057 -1.1679,-3e-4 -2.33579,-9e-4 -3.50369,0 -1.39715,-0.001 -2.79432,0 -4.19146,0 -1.18258,0.012 -2.36777,0.019 -3.5449,0.1464 -1.20511,0.1461 -2.39838,0.4435 -3.61679,0.4263 -1.09226,-2e-4 -2.18451,-5e-4 -3.27677,0 -0.90768,0 -1.81535,-0.01 -2.72303,0 -0.89284,0 -1.78714,0.02 -2.675,0.1248 -1.39082,0.1798 -2.76394,0.4495 -4.11297,0.8378 -2.92547,0.8359 -3.71351,-1.9223 -0.78805,-2.7581 z"
       inkscape:connector-curvature="0" />
    <path
       style="fill:#00ff00;fill-opacity:1;stroke:#00ff00;stroke-opacity:0"
       id="path5212"
       d="m 451.42363,789.65567 c 1.65554,0.2404 3.32408,0.3555 4.9942,0.4274 1.62792,0.059 3.25713,0.064 4.88591,0.067 1.4401,7e-4 2.88019,0 4.32029,0 1.55623,0.084 3.0882,-0.068 4.6296,-0.251 1.45187,-0.1795 2.91233,-0.2618 4.37379,-0.3044 1.29518,-0.028 2.59078,-0.024 3.88619,-0.023 1.71489,0.083 3.41163,-0.077 5.11465,-0.2494 2.07718,-0.1216 4.13478,-0.4297 6.20357,-0.6399 1.84837,-0.1824 3.70595,-0.2253 5.56186,-0.2504 1.78452,10e-4 3.57029,-0.062 5.35113,0.065 1.69173,0.2167 3.40212,0.092 5.09993,0.025 1.38006,-0.03 2.73949,-0.3127 4.10575,-0.4928 0.97113,-0.1255 1.94979,-0.1609 2.92779,-0.1751 1.00417,-0.033 1.99147,-0.2825 2.9906,-0.4074 0.9423,-0.1056 1.88963,-0.1471 2.83709,-0.1652 0.2941,-0.01 0.58825,-0.01 0.88237,0 0.0126,3e-4 0.0253,6e-4 0.0379,10e-4 -0.0994,0.9563 -0.1989,1.9126 -0.29835,2.8689 -3.04251,0.011 -3.05272,-2.8577 -0.0102,-2.8685 l 0,0 c 0.0764,0.9556 0.15289,1.9113 0.22933,2.867 -0.002,-10e-5 -0.005,-2e-4 -0.007,-3e-4 -0.25984,0 -0.51972,-4e-4 -0.77954,0 -0.8477,0.016 -1.6953,0.051 -2.5386,0.1439 -1.10229,0.1353 -2.18952,0.4189 -3.30241,0.4289 -0.86647,0.012 -1.73367,0.041 -2.59423,0.1509 -1.45283,0.1912 -2.89853,0.4888 -4.36695,0.5151 -1.8071,0.072 -3.62694,0.1942 -5.42788,-0.031 -1.69502,-0.1353 -3.39894,-0.042 -5.09805,-0.057 -1.77216,0.024 -3.54604,0.063 -5.31112,0.236 -2.06907,0.2092 -4.12702,0.5186 -6.20444,0.64 -1.79882,0.1818 -3.59355,0.3449 -5.40444,0.2639 -1.26728,-6e-4 -2.53475,-0.01 -3.80182,0.022 -1.37595,0.04 -2.75097,0.1163 -4.11786,0.2856 -1.65246,0.1966 -3.29894,0.3523 -4.96643,0.271 -1.44269,0 -2.88538,0 -4.32807,0 -1.66824,0 -3.33692,-0.01 -5.00426,-0.07 -1.7643,-0.077 -3.52693,-0.1994 -5.27581,-0.4536 -3.01194,-0.4302 -2.60627,-3.2699 0.40567,-2.8397 z"
       inkscape:connector-curvature="0" />
    <path
       style="fill:#00ff00;fill-opacity:1;stroke:#00ff00;stroke-opacity:0"
       id="path5218"
       d="m 530.02112,787.23874 c 1.16699,0.1776 2.33714,0.3302 3.51326,0.4315 0.76235,0.035 1.47159,0.3438 2.20707,0.5181 0.65467,0.286 1.32959,0.5032 2.00026,0.744 0.4585,0.2216 0.91532,0.4 1.4176,0.4769 0.59359,0.051 1.19044,0.046 1.78573,0.047 0.75848,-9e-4 1.51696,0 2.27544,0 0.91501,-0.08 1.79094,0.097 2.67801,0.2921 0.86042,0.1752 1.73655,0.2338 2.61213,0.2621 1.20172,0.013 2.34911,0.3335 3.55148,0.2755 1.16888,-0.098 2.33855,-0.1764 3.51075,-0.2197 1.03024,-0.037 2.06124,-0.038 3.09199,-0.039 1.48461,-6e-4 2.96922,5e-4 4.45383,10e-4 1.29799,4e-4 2.59598,6e-4 3.89397,6e-4 0.89947,1e-4 1.79894,1e-4 2.69841,1e-4 0.7387,0 1.4774,0 2.2161,0 0.71557,0.08 1.36966,-0.1349 2.0542,-0.3038 0.84316,-0.1952 1.7109,-0.2333 2.57265,-0.2616 0.32107,-0.01 0.6423,-0.015 0.96349,-0.011 1.03348,0.028 0.25442,0.3584 0.8781,2.6076 -2.19207,2.1099 -4.18133,0.043 -1.98927,-2.0667 l 0,0 c 0.36017,0.83 0.44782,2.3128 1.07249,2.3274 -0.27725,0 -0.55451,0 -0.83167,0.01 -0.66154,0.021 -1.32899,0.041 -1.97843,0.1795 -0.9015,0.2225 -1.80241,0.4658 -2.74155,0.3873 -0.7387,0 -1.4774,0 -2.2161,0 -0.89953,10e-5 -1.79906,10e-5 -2.6986,0 -1.29826,-10e-5 -2.59652,-2e-4 -3.89479,-6e-4 -1.48273,-6e-4 -2.96547,0 -4.4482,-10e-4 -0.99718,0 -1.99462,0 -2.99133,0.037 -1.16791,0.043 -2.33283,0.1254 -3.49768,0.2192 -1.27807,0.046 -2.49751,-0.203 -3.76535,-0.2747 -1.05097,-0.036 -2.10226,-0.1119 -3.13396,-0.3277 -0.69339,-0.153 -1.33408,-0.3122 -2.05588,-0.2249 -0.76184,10e-4 -1.52368,0 -2.28552,0 -0.74661,-10e-4 -1.49645,0.01 -2.23891,-0.084 -0.68454,-0.1144 -1.33955,-0.3121 -1.96295,-0.6213 -0.5495,-0.2229 -1.14688,-0.3334 -1.66358,-0.6414 -0.5993,-0.1443 -1.17853,-0.3923 -1.78677,-0.4501 -1.22916,-0.1065 -2.45244,-0.2637 -3.67209,-0.4496 -3.01194,-0.4303 -2.60627,-3.27 0.40567,-2.8397 z"
       inkscape:connector-curvature="0" />
    <path
       style="fill:#00ff00;fill-opacity:1;stroke:#00ff00;stroke-opacity:0"
       id="path5220"
       d="m 576.86204,788.72322 c 1.29968,0 2.59937,0 3.89905,0 0.47948,0 0.95896,0 1.43845,0 0.40531,0 0.81062,0 1.21594,0 0.57268,0 1.14536,0 1.71805,0 0.55827,0 1.11655,0 1.67483,0 0.34756,0 0.69512,0 1.04268,0 0.16226,0 0.32452,0 0.48678,0 3.04252,0 3.04252,2.8685 0,2.8685 l 0,0 c -0.16226,0 -0.32452,0 -0.48678,0 -0.34756,0 -0.69512,0 -1.04268,0 -0.55828,0 -1.11656,0 -1.67483,0 -0.57269,0 -1.14537,0 -1.71805,0 -0.40532,0 -0.81063,0 -1.21594,0 -0.47949,0 -0.95897,0 -1.43845,0 -1.29968,0 -2.59937,0 -3.89905,0 -3.04252,0 -3.04252,-2.8685 0,-2.8685 z"
       inkscape:connector-curvature="0" />
    <path
       style="fill:#00ff00;fill-opacity:1;stroke:#00ff00;stroke-opacity:0"
       id="path5222"
       d="m 597.95276,788.8613 c 1.25712,-0.6042 2.5626,-1.0881 3.91398,-1.4299 0.91189,-0.1642 1.79446,0.088 2.68452,0.2428 0.60029,0.087 1.20803,0.086 1.81316,0.093 0.90656,-0.017 1.78021,0.2707 2.66151,0.4466 0.77416,0.1215 1.56159,0.1179 2.34323,0.1276 1.11209,0.01 2.22422,0 3.33633,0 1.2958,0.082 2.56452,-0.083 3.84488,-0.25 1.25174,-0.1659 2.51172,-0.254 3.77278,-0.306 0.9235,-0.078 1.79757,0.2678 2.69675,0.4109 1.05665,0.091 2.10266,0.1394 3.14874,0.3275 1.09028,0.2238 2.19889,0.3102 3.30869,0.3555 1.18903,0.036 2.37876,0.037 3.56823,0.038 0.98169,-0.084 1.9259,0.1748 2.87618,0.3725 0.74957,0.1359 1.51165,0.168 2.27141,0.1899 0.8286,0.1369 1.61609,0.395 2.45266,0.4897 0.81797,-0.1254 1.63306,-0.2638 2.45457,-0.3653 0.89173,-0.097 1.78982,-0.1094 2.68593,-0.118 1.00617,0 2.01236,0 3.01853,-10e-4 0.82481,10e-4 1.64962,10e-4 2.47444,0 0.7707,-0.091 1.47677,0.2011 2.20077,0.4012 0.50383,0.1395 1.0328,0.1475 1.55208,0.166 0.60865,0.014 1.21753,0.011 1.8263,0.01 0.64393,0 1.28786,0 1.93179,0 0.44695,-0.027 0.9313,-0.2591 1.41931,-0.3782 0.63548,-0.1458 1.28825,-0.1753 1.93748,-0.1942 0.33428,-0.01 0.66871,-0.01 1.00304,0 0.23604,0 -0.0571,-6e-4 0.11864,10e-4 3.04232,0.035 3.00904,2.9036 -0.0333,2.8683 l 0,0 c -0.15967,0 0.11777,10e-4 -0.10606,0 -0.30008,0 -0.60024,0 -0.90027,0 -0.45616,0.013 -0.91629,0.024 -1.36412,0.1196 -0.69201,0.1496 -1.34474,0.5079 -2.07277,0.454 -0.64287,4e-4 -1.28575,10e-4 -1.92862,0 -0.64508,10e-4 -1.29029,0.01 -1.93522,-0.012 -0.7517,-0.028 -1.5116,-0.063 -2.23833,-0.275 -0.58097,-0.17 -0.83594,-0.3536 -1.41153,-0.2903 -0.82561,-2e-4 -1.65121,-6e-4 -2.47682,0 -0.99608,-10e-4 -1.99217,0 -2.98824,10e-4 -0.78805,0.01 -1.57791,0.015 -2.36251,0.097 -1.04666,0.1285 -2.08165,0.3734 -3.14042,0.3671 -0.74761,-0.091 -1.48894,-0.2174 -2.20093,-0.4712 -0.92885,-0.027 -1.86007,-0.074 -2.77491,-0.2495 -0.76254,-0.1601 -1.50068,-0.3944 -2.28968,-0.3118 -1.22901,-2e-4 -2.4583,0 -3.68683,-0.04 -1.24125,-0.053 -2.48118,-0.1511 -3.70102,-0.3989 -1.0291,-0.1883 -2.06331,-0.1957 -3.10165,-0.3194 -0.70768,-0.1187 -1.40082,-0.3777 -2.11479,-0.3754 -1.17615,0.048 -2.35135,0.1294 -3.5188,0.2842 -1.40105,0.183 -2.79612,0.352 -4.213,0.2741 -1.12528,10e-4 -2.25058,0 -3.37584,0 -0.9583,-0.012 -1.9233,-0.015 -2.86994,-0.1831 -0.70729,-0.1418 -1.40996,-0.3839 -2.13141,-0.391 -0.75922,-0.01 -1.52134,-0.014 -2.27305,-0.1353 -0.49939,-0.087 -0.99609,-0.1879 -1.4933,-0.2865 -1.15076,0.2864 -2.2583,0.7045 -3.32975,1.2134 -2.72132,1.3606 -4.00416,-1.2051 -1.28284,-2.5657 z"
       inkscape:connector-curvature="0" />
  </g>
</svg>
