<?xml version="1.0" encoding="UTF-8" standalone="no"?>
<!-- Created with Inkscape (http://www.inkscape.org/) -->

<svg
   xmlns:dc="http://purl.org/dc/elements/1.1/"
   xmlns:cc="http://creativecommons.org/ns#"
   xmlns:rdf="http://www.w3.org/1999/02/22-rdf-syntax-ns#"
   xmlns:svg="http://www.w3.org/2000/svg"
   xmlns="http://www.w3.org/2000/svg"
   xmlns:sodipodi="http://sodipodi.sourceforge.net/DTD/sodipodi-0.dtd"
   xmlns:inkscape="http://www.inkscape.org/namespaces/inkscape"
   width="210mm"
   height="148mm"
   viewBox="0 0 744.09449 524.40945"
   id="svg2"
   version="1.1"
   inkscape:version="0.91 r13725"
   sodipodi:docname="GuessTheWord_Fig2.svg"
   inkscape:export-filename="/home/mlnode_main/Documents/Roblox_GuessGame/GuessW_Tracking_Fig2"
   inkscape:export-xdpi="90"
   inkscape:export-ydpi="90">
  <defs
     id="defs4">
    <inkscape:path-effect
       effect="skeletal"
       id="path-effect4236"
       is_visible="true"
       pattern="m 0,532.95275 c 0,-2.76 2.24,-5 5,-5 2.76,0 5,2.24 5,5 0,2.76 -2.24,5 -5,5 -2.76,0 -5,-2.24 -5,-5 z"
       copytype="single_stretched"
       prop_scale="1"
       scale_y_rel="false"
       spacing="0"
       normal_offset="0"
       tang_offset="0"
       prop_units="false"
       vertical_pattern="false"
       fuse_tolerance="0" />
    <inkscape:path-effect
       effect="spiro"
       id="path-effect4234"
       is_visible="true" />
    <inkscape:path-effect
       effect="skeletal"
       id="path-effect4230"
       is_visible="true"
       pattern="m 0,532.95275 c 0,-2.76 2.24,-5 5,-5 2.76,0 5,2.24 5,5 0,2.76 -2.24,5 -5,5 -2.76,0 -5,-2.24 -5,-5 z"
       copytype="single_stretched"
       prop_scale="1"
       scale_y_rel="false"
       spacing="0"
       normal_offset="0"
       tang_offset="0"
       prop_units="false"
       vertical_pattern="false"
       fuse_tolerance="0" />
    <inkscape:path-effect
       effect="spiro"
       id="path-effect4228"
       is_visible="true" />
    <inkscape:path-effect
       effect="skeletal"
       id="path-effect4224"
       is_visible="true"
       pattern="m 0,532.95275 c 0,-2.76 2.24,-5 5,-5 2.76,0 5,2.24 5,5 0,2.76 -2.24,5 -5,5 -2.76,0 -5,-2.24 -5,-5 z"
       copytype="single_stretched"
       prop_scale="1"
       scale_y_rel="false"
       spacing="0"
       normal_offset="0"
       tang_offset="0"
       prop_units="false"
       vertical_pattern="false"
       fuse_tolerance="0" />
    <inkscape:path-effect
       effect="spiro"
       id="path-effect4222"
       is_visible="true" />
    <inkscape:path-effect
       effect="skeletal"
       id="path-effect4218"
       is_visible="true"
       pattern="m 0,532.95275 c 0,-2.76 2.24,-5 5,-5 2.76,0 5,2.24 5,5 0,2.76 -2.24,5 -5,5 -2.76,0 -5,-2.24 -5,-5 z"
       copytype="single_stretched"
       prop_scale="1"
       scale_y_rel="false"
       spacing="0"
       normal_offset="0"
       tang_offset="0"
       prop_units="false"
       vertical_pattern="false"
       fuse_tolerance="0" />
    <inkscape:path-effect
       effect="spiro"
       id="path-effect4216"
       is_visible="true" />
    <inkscape:path-effect
       effect="skeletal"
       id="path-effect4212"
       is_visible="true"
       pattern="m 0,532.95275 c 0,-2.76 2.24,-5 5,-5 2.76,0 5,2.24 5,5 0,2.76 -2.24,5 -5,5 -2.76,0 -5,-2.24 -5,-5 z"
       copytype="single_stretched"
       prop_scale="1"
       scale_y_rel="false"
       spacing="0"
       normal_offset="0"
       tang_offset="0"
       prop_units="false"
       vertical_pattern="false"
       fuse_tolerance="0" />
    <inkscape:path-effect
       effect="spiro"
       id="path-effect4210"
       is_visible="true" />
    <inkscape:path-effect
       effect="skeletal"
       id="path-effect4206"
       is_visible="true"
       pattern="m 0,532.95275 c 0,-2.76 2.24,-5 5,-5 2.76,0 5,2.24 5,5 0,2.76 -2.24,5 -5,5 -2.76,0 -5,-2.24 -5,-5 z"
       copytype="single_stretched"
       prop_scale="1"
       scale_y_rel="false"
       spacing="0"
       normal_offset="0"
       tang_offset="0"
       prop_units="false"
       vertical_pattern="false"
       fuse_tolerance="0" />
    <inkscape:path-effect
       effect="spiro"
       id="path-effect4204"
       is_visible="true" />
    <inkscape:path-effect
       effect="skeletal"
       id="path-effect4200"
       is_visible="true"
       pattern="m 0,532.95275 c 0,-2.76 2.24,-5 5,-5 2.76,0 5,2.24 5,5 0,2.76 -2.24,5 -5,5 -2.76,0 -5,-2.24 -5,-5 z"
       copytype="single_stretched"
       prop_scale="1"
       scale_y_rel="false"
       spacing="0"
       normal_offset="0"
       tang_offset="0"
       prop_units="false"
       vertical_pattern="false"
       fuse_tolerance="0" />
    <inkscape:path-effect
       effect="spiro"
       id="path-effect4198"
       is_visible="true" />
    <inkscape:path-effect
       effect="skeletal"
       id="path-effect4194"
       is_visible="true"
       pattern="m 0,532.95275 c 0,-2.76 2.24,-5 5,-5 2.76,0 5,2.24 5,5 0,2.76 -2.24,5 -5,5 -2.76,0 -5,-2.24 -5,-5 z"
       copytype="single_stretched"
       prop_scale="1"
       scale_y_rel="false"
       spacing="0"
       normal_offset="0"
       tang_offset="0"
       prop_units="false"
       vertical_pattern="false"
       fuse_tolerance="0" />
    <inkscape:path-effect
       effect="spiro"
       id="path-effect4192"
       is_visible="true" />
    <inkscape:path-effect
       effect="spiro"
       id="path-effect4188"
       is_visible="true" />
    <inkscape:path-effect
       effect="spiro"
       id="path-effect4184"
       is_visible="true" />
    <inkscape:path-effect
       effect="spiro"
       id="path-effect4180"
       is_visible="true" />
    <inkscape:path-effect
       effect="spiro"
       id="path-effect4176"
       is_visible="true" />
    <inkscape:path-effect
       effect="spiro"
       id="path-effect4172"
       is_visible="true" />
  </defs>
  <sodipodi:namedview
     id="base"
     pagecolor="#000000"
     bordercolor="#666666"
     borderopacity="1.0"
     inkscape:pageopacity="1"
     inkscape:pageshadow="2"
     inkscape:zoom="1.7430582"
     inkscape:cx="376.06317"
     inkscape:cy="261.63102"
     inkscape:document-units="px"
     inkscape:current-layer="layer1"
     showgrid="false"
     units="mm"
     showguides="false"
     inkscape:window-width="1920"
     inkscape:window-height="1113"
     inkscape:window-x="0"
     inkscape:window-y="24"
     inkscape:window-maximized="1" />
  <metadata
     id="metadata7">
    <rdf:RDF>
      <cc:Work
         rdf:about="">
        <dc:format>image/svg+xml</dc:format>
        <dc:type
           rdf:resource="http://purl.org/dc/dcmitype/StillImage" />
        <dc:title></dc:title>
      </cc:Work>
    </rdf:RDF>
  </metadata>
  <g
     inkscape:label="Layer 1"
     inkscape:groupmode="layer"
     id="layer1"
     transform="translate(0,-527.95275)">
    <path
       style="fill:#00ff00;fill-opacity:1;stroke:#00ff00;stroke-opacity:0"
       id="path5200"
       d="m 72.77879,789.12023 c 1.682379,0.037 3.365243,-0.013 5.047376,-0.043 1.433714,-0.064 2.875634,0.042 4.304245,-0.1008 1.76531,-0.2352 3.540106,-0.3689 5.31853,-0.4471 1.580862,0.018 3.138386,-0.1055 4.7025,-0.3163 1.621021,-0.2167 3.256354,-0.2695 4.889378,-0.3048 1.641596,0.093 3.268111,0.3352 4.908231,0.4516 1.70597,0.1035 3.41618,0.1 5.12459,0.106 2.25502,0 4.51004,10e-4 6.76505,-10e-5 1.48522,0.1074 2.93939,-0.134 4.40306,-0.3341 1.18968,-0.1701 2.36243,-0.2669 3.54774,-0.042 0.83116,0.125 1.5894,0.4581 2.3079,0.8808 0.23903,0.1423 0.46528,0.3026 0.66623,0.4948 2.12804,2.1745 0.0779,4.1808 -2.05013,2.0064 l 0,0 c 0.19762,0.1846 0.0226,0.011 -0.0799,-0.034 -0.44391,-0.2671 -0.88488,-0.4745 -1.40879,-0.5355 -0.85905,-0.1912 -1.72716,-0.015 -2.59481,0.072 -1.59079,0.2172 -3.17661,0.4649 -4.78965,0.3605 -2.25906,0.001 -4.51813,0 -6.77719,1e-4 -1.77298,-0.01 -3.5478,0 -5.31815,-0.1132 -1.5518,-0.1112 -3.092314,-0.3184 -4.642457,-0.445 -1.525605,0.033 -3.053604,0.078 -4.568192,0.2798 -1.648975,0.2221 -3.294195,0.3547 -4.960106,0.3392 -1.732946,0.075 -3.461721,0.2093 -5.181877,0.4378 -1.501365,0.1285 -3.008297,0.069 -4.51404,0.1124 -1.834435,0.033 -3.671622,0.1026 -5.505241,0.015 -3.011947,-0.4303 -2.606277,-3.2699 0.40567,-2.8397 z"
       inkscape:connector-curvature="0" />
    <path
       style="fill:#00ff00;fill-opacity:1;stroke:#00ff00;stroke-opacity:0"
       id="path5204"
       d="m 145.25672,789.51199 c 1.59619,0.4602 3.24416,0.6769 4.89354,0.8323 1.02429,0.1467 1.99525,0.1208 2.99645,-0.097 0.79312,-0.21 1.60975,-0.2889 2.42639,-0.3307 0.96518,-0.032 1.93112,-0.027 2.89669,-0.027 0.77703,-0.1591 1.54983,-0.3347 2.33465,-0.4516 0.80547,-0.1016 1.61776,-0.1132 2.42837,-0.1208 0.95962,0 1.91926,-6e-4 2.87888,6e-4 1.0378,-0.035 2.08658,0.08 3.11758,-0.058 1.61356,-0.2564 3.24258,-0.3738 4.87313,-0.4481 1.58251,-0.075 3.15427,-0.1163 4.72464,0.1085 1.27883,0.204 2.56939,0.3051 3.86205,0.3622 1.17402,0.048 2.34216,-0.1855 3.50019,-0.3589 0.25626,0.029 1.59336,-0.3718 0.46993,0.013 0.81643,-0.5177 1.7673,-0.6249 2.70848,-0.6985 1.14966,0.019 2.26638,-0.1246 3.39633,-0.3109 1.21556,-0.2062 2.44696,-0.2726 3.67726,-0.3106 1.07043,-0.025 2.14123,-0.023 3.21187,-0.022 1.3059,0.081 2.5843,-0.058 3.87316,-0.2422 0.81589,-0.1102 1.63305,-0.2112 2.45151,-0.3004 0.16126,-0.023 0.32221,-0.03 0.48478,-0.03 0.56634,-0.053 1.08885,0.1638 1.61183,0.344 0.28556,0.096 0.57399,0.1835 0.86403,0.2651 0.32174,0.066 -1.55357,2.8282 -0.28514,2.8408 -2.90302,0.9108 -3.76167,-1.8262 -0.85865,-2.737 l 0,0 c 0.21681,-0.044 0.60505,-0.3503 0.65043,-0.1336 0.61217,2.9225 0.7711,3.0673 -0.27108,2.7945 -0.35451,-0.098 -0.70597,-0.2073 -1.05455,-0.3249 -1.01431,-0.3633 0.32629,-0.098 -0.71804,-0.181 0.19,-0.013 -0.0839,0.01 -0.11301,0.014 -0.7865,0.086 -1.57172,0.1828 -2.35578,0.2883 -1.42295,0.2036 -2.8411,0.3493 -4.28161,0.2711 -1.04067,-8e-4 -2.08149,0 -3.12197,0.021 -1.10338,0.033 -2.2081,0.089 -3.29838,0.2737 -1.21113,0.1997 -2.4161,0.3558 -3.64691,0.341 -0.43506,0.031 -0.86747,0.053 -1.2839,0.1912 -0.58347,0.2649 -1.04542,0.4284 -1.68588,0.4706 -1.3407,0.2007 -2.69241,0.4552 -4.05263,0.3878 -1.38806,-0.062 -2.77394,-0.1713 -4.14732,-0.3893 -1.38881,-0.2061 -2.7813,-0.136 -4.18198,-0.082 -1.56646,0.07 -3.1308,0.1857 -4.68074,0.4328 -1.14499,0.1157 -2.29289,0.073 -3.44294,0.076 -0.94974,-10e-4 -1.8995,0 -2.84924,-7e-4 -0.68074,0.01 -1.36286,0.013 -2.04001,0.091 -0.92287,0.1312 -1.82005,0.4019 -2.7509,0.4817 -0.91761,-5e-4 -1.83553,0 -2.75282,0.023 -0.66094,0.032 -1.32124,0.094 -1.96189,0.2694 -1.28851,0.2777 -2.56265,0.3226 -3.87408,0.1491 -1.82412,-0.174 -3.64575,-0.4199 -5.41076,-0.9298 -2.92547,-0.8358 -2.13742,-3.594 0.78804,-2.7582 z"
       inkscape:connector-curvature="0" />
    <path
       style="fill:#00ff00;fill-opacity:1;stroke:#00ff00;stroke-opacity:0"
       id="path5206"
       d="m 221.53624,789.84313 c 1.72453,-0.2507 3.46266,-0.3716 5.20214,-0.4534 1.59465,-0.061 3.19066,-0.067 4.78625,-0.07 1.403,-6e-4 2.806,10e-4 4.209,0 1.48891,-0.1784 2.97405,-0.3648 4.47092,-0.4653 1.73039,-0.015 3.44215,-0.1663 5.15993,-0.3602 1.61872,-0.1786 3.24534,-0.2604 4.87259,-0.303 1.26568,-0.026 2.53171,-0.022 3.79758,-0.021 1.58427,-0.1817 3.16729,-0.3585 4.75879,-0.4633 1.26061,-0.074 2.5233,-0.099 3.78582,-0.1089 0.61901,0 1.23803,-8e-4 1.85705,6e-4 0.82068,-0.01 1.6335,-0.016 2.4482,0.086 0.72717,0.1645 1.45164,0.3315 2.18945,0.4404 0.31684,0.057 0.63858,0.051 0.95916,0.053 1.00637,0 2.01274,0 3.01911,0 1.1637,-9e-4 2.3274,-0.001 3.4911,-0.001 0.57192,0.021 1.11667,0.027 1.60091,-0.111 0.58093,-0.1992 1.17702,-0.3375 1.78558,-0.4157 0.30851,-0.031 0.61834,-0.049 0.92837,-0.051 0.27388,0 0.54777,0 0.82166,0 0.78276,-0.071 1.51877,0.1896 2.25789,0.4025 0.34519,0.07 0.68969,0.1504 1.01717,0.2814 -0.57256,2.732 0.20534,2.747 -0.99806,2.7654 -3.04222,0.043 -3.08288,-2.8251 -0.0407,-2.8682 l 0,0 c 1.1076,-0.014 0.34687,-0.2143 -0.0957,2.7374 0.21901,0.082 -0.73478,-0.2184 -0.67683,-0.1596 -0.50635,-0.1459 -0.93758,-0.3531 -1.46884,-0.2904 -0.26736,-4e-4 -0.53474,-6e-4 -0.80208,0 -0.20217,0 -0.40418,0.013 -0.60555,0.031 -0.46553,0.044 -0.90992,0.1927 -1.35411,0.3307 -0.78433,0.215 -1.5596,0.2529 -2.36937,0.2159 -1.16304,10e-5 -2.32608,4e-4 -3.48912,10e-4 -1.01213,8e-4 -2.02425,0 -3.03638,0 -0.45634,0 -0.91402,-0.01 -1.3652,-0.084 -0.73827,-0.11 -1.46831,-0.2593 -2.19244,-0.4409 -0.66145,-0.141 -1.35828,-0.01 -2.03048,-0.055 -0.60982,-0.001 -1.21964,0 -1.82946,-6e-4 -1.20704,0.01 -2.41423,0.032 -3.61948,0.1028 -1.65485,0.108 -3.29785,0.3154 -4.94842,0.4695 -1.24034,-8e-4 -2.48082,0 -3.72098,0.021 -1.54468,0.04 -3.08879,0.1168 -4.62542,0.2858 -1.76095,0.1988 -3.51765,0.3551 -5.2912,0.372 -1.56137,0.1031 -3.10665,0.3263 -4.66365,0.4717 -1.40047,-10e-4 -2.80095,0 -4.20142,0 -1.55267,0 -3.10574,0.01 -4.65752,0.067 -1.64867,0.077 -3.29611,0.1901 -4.93062,0.4277 -3.01195,0.4303 -3.41762,-2.4094 -0.40567,-2.8397 z"
       inkscape:connector-curvature="0" />
    <path
       style="fill:#00ff00;fill-opacity:1;stroke:#00ff00;stroke-opacity:0"
       id="path5208"
       d="m 300.91027,789.41564 c 1.61863,0.079 3.2192,-0.1742 4.82431,-0.3381 1.48375,-0.1453 2.9688,-0.1497 4.44318,-0.3751 1.33269,-0.2218 2.67138,-0.4012 4.02248,-0.3279 1.19265,0.1821 2.3851,0.3306 3.58962,0.401 1.1603,0.1536 2.29609,0.4266 3.46122,0.547 1.00968,0.018 1.99065,0.1916 2.97897,0.3827 0.87171,0.165 1.76629,-0.043 2.63845,-0.14 0.87135,-0.1043 1.74897,-0.1314 2.62559,-0.1446 1.33049,-0.011 2.66105,-0.01 3.99157,-0.01 1.20915,0.073 2.37865,-0.014 3.56322,-0.234 1.08444,-0.1259 2.12911,-0.4376 3.19987,-0.6399 1.10709,-0.2739 2.27635,-0.1061 3.38485,-0.3188 0.88066,-0.2088 1.76825,-0.3663 2.66834,-0.4583 0.83419,-0.069 1.67196,-0.07 2.50841,-0.072 0.89363,-10e-5 1.78726,0 2.6809,0 0.95611,-0.035 1.88597,0 2.82232,0.1979 0.64136,0.1715 1.2932,0.2921 1.95477,0.345 0.54446,0.038 1.09067,0.036 1.63614,0.036 0.73185,-0.064 1.40369,0.1799 2.0304,0.5324 1.11199,0.6775 0.51637,0.6346 0.23883,2.7354 -2.54694,1.6643 -4.1161,-0.7369 -1.56916,-2.4013 l 0,0 c -0.0172,0.6483 0.38843,2.5333 -0.0967,2.1543 -0.0769,-0.046 -0.3059,-0.085 -0.23235,-0.1363 0.0371,-0.026 0.17968,-0.01 0.13498,-0.017 -0.1671,-0.028 -0.34183,0.036 -0.50845,10e-4 -0.62506,-6e-4 -1.25095,0 -1.87467,-0.046 -0.78648,-0.069 -1.56529,-0.1964 -2.32859,-0.4016 -0.7311,-0.1636 -1.45831,-0.1492 -2.2105,-0.1312 -0.89003,-9e-4 -1.78006,0 -2.67009,0 -0.7426,0 -1.48631,10e-4 -2.22723,0.058 -0.84785,0.085 -1.67933,0.2505 -2.51045,0.4379 -1.09671,0.1549 -2.20973,0.1124 -3.30385,0.3048 -1.0721,0.1985 -2.11834,0.5169 -3.20412,0.6407 -1.3566,0.2517 -2.70643,0.3564 -4.08829,0.2822 -1.31588,-6e-4 -2.6318,0 -3.94766,0.01 -0.78493,0.011 -1.57095,0.034 -2.35116,0.1274 -1.16078,0.1287 -2.33947,0.359 -3.50044,0.1053 -0.9099,-0.1762 -1.80203,-0.3385 -2.73395,-0.3462 -1.12102,-0.1196 -2.22046,-0.3449 -3.33026,-0.5363 -1.21595,-0.072 -2.42335,-0.2051 -3.6256,-0.4033 -1.12944,-0.1206 -2.2698,0.1715 -3.3872,0.3028 -1.52166,0.2292 -3.05065,0.2578 -4.58216,0.3927 -1.70154,0.1735 -3.39979,0.4333 -5.11555,0.353 -3.04253,0 -3.04253,-2.8686 0,-2.8686 z"
       inkscape:connector-curvature="0" />
    <path
       style="fill:#00ff00;fill-opacity:1;stroke:#00ff00;stroke-opacity:0"
       id="path5210"
       d="m 371.65558,788.64523 c 1.48608,-0.4276 2.9995,-0.7244 4.53143,-0.9243 1.00437,-0.1215 2.01626,-0.1422 3.02664,-0.1487 0.91571,-10e-4 1.83143,0 2.74715,0 1.09038,0 2.18077,0 3.27116,0 1.09851,-0.01 2.17871,-0.2711 3.26848,-0.4051 1.28302,-0.1432 2.5751,-0.1547 3.86447,-0.1674 1.40754,-0.01 2.81511,0 4.22266,0 1.16717,10e-4 2.33433,0 3.50149,0 1.06307,0 2.1233,-0.038 3.18052,0.081 1.10603,0.2192 2.22036,0.3637 3.34529,0.4314 1.39979,0.079 2.8016,0.014 4.19775,0.1412 1.31511,0.2238 2.64833,0.3111 3.96458,0.5183 1.29332,0.2692 2.60172,0.4163 3.91892,0.4915 1.48565,0.062 2.97292,0.061 4.45957,0.063 1.21147,-0.08 2.38873,0.1217 3.53985,0.4816 1.19196,0.4187 2.45685,0.4743 3.692,0.677 0.97436,0.2156 1.9533,0.4029 2.94593,0.5078 0.36661,0.042 0.73526,0.053 1.10393,0.055 0.11356,-10e-5 0.1978,0 0.30259,0 -1.52893,0.5451 -0.15721,-0.1053 0.181,-0.3566 0.0908,-0.1685 2.0973,-1.0773 0.86804,-0.4219 0.19919,1.008 1.28508,2.4732 0.36892,2.471 -3.03958,-0.134 -2.91332,-2.9997 0.12626,-2.8658 l 0,0 c 1.34034,0.074 0.76001,0.2159 1.34835,2.5925 -0.35468,0.2047 -0.69879,0.3313 -1.01519,0.5373 -0.58909,0.4285 -1.137,0.7187 -1.85549,0.912 -0.11313,0.001 -0.22647,0.01 -0.33971,0 -0.46525,0 -0.93046,-0.019 -1.39314,-0.071 -1.04948,-0.1129 -2.08754,-0.2981 -3.11705,-0.5313 -1.3737,-0.2381 -2.78558,-0.292 -4.10901,-0.7798 -0.85793,-0.3058 -1.74385,-0.3899 -2.65105,-0.3392 -1.54049,0 -3.08166,0 -4.62104,-0.068 -1.41561,-0.082 -2.82321,-0.2363 -4.2136,-0.5239 -1.25396,-0.2123 -2.53312,-0.2647 -3.78624,-0.4949 -1.35706,-0.1488 -2.7307,-0.024 -4.09232,-0.1328 -1.18774,-0.074 -2.36781,-0.2128 -3.5352,-0.4495 -0.92611,-0.1504 -1.88062,-0.01 -2.81528,-0.057 -1.1679,-3e-4 -2.33579,-9e-4 -3.50369,0 -1.39715,-0.001 -2.79432,0 -4.19146,0 -1.18258,0.012 -2.36777,0.019 -3.5449,0.1464 -1.20511,0.1461 -2.39838,0.4435 -3.61679,0.4263 -1.09226,-2e-4 -2.18451,-5e-4 -3.27677,0 -0.90768,0 -1.81535,-0.01 -2.72303,0 -0.89284,0 -1.78714,0.02 -2.675,0.1248 -1.39082,0.1798 -2.76394,0.4495 -4.11297,0.8378 -2.92547,0.8359 -3.71351,-1.9223 -0.78805,-2.7581 z"
       inkscape:connector-curvature="0" />
    <path
       style="fill:#00ff00;fill-opacity:1;stroke:#00ff00;stroke-opacity:0"
       id="path5212"
       d="m 451.42363,789.65567 c 1.65554,0.2404 3.32408,0.3555 4.9942,0.4274 1.62792,0.059 3.25713,0.064 4.88591,0.067 1.4401,7e-4 2.88019,0 4.32029,0 1.55623,0.084 3.0882,-0.068 4.6296,-0.251 1.45187,-0.1795 2.91233,-0.2618 4.37379,-0.3044 1.29518,-0.028 2.59078,-0.024 3.88619,-0.023 1.71489,0.083 3.41163,-0.077 5.11465,-0.2494 2.07718,-0.1216 4.13478,-0.4297 6.20357,-0.6399 1.84837,-0.1824 3.70595,-0.2253 5.56186,-0.2504 1.78452,10e-4 3.57029,-0.062 5.35113,0.065 1.69173,0.2167 3.40212,0.092 5.09993,0.025 1.38006,-0.03 2.73949,-0.3127 4.10575,-0.4928 0.97113,-0.1255 1.94979,-0.1609 2.92779,-0.1751 1.00417,-0.033 1.99147,-0.2825 2.9906,-0.4074 0.9423,-0.1056 1.88963,-0.1471 2.83709,-0.1652 0.2941,-0.01 0.58825,-0.01 0.88237,0 0.0126,3e-4 0.0253,6e-4 0.0379,10e-4 -0.0994,0.9563 -0.1989,1.9126 -0.29835,2.8689 -3.04251,0.011 -3.05272,-2.8577 -0.0102,-2.8685 l 0,0 c 0.0764,0.9556 0.15289,1.9113 0.22933,2.867 -0.002,-10e-5 -0.005,-2e-4 -0.007,-3e-4 -0.25984,0 -0.51972,-4e-4 -0.77954,0 -0.8477,0.016 -1.6953,0.051 -2.5386,0.1439 -1.10229,0.1353 -2.18952,0.4189 -3.30241,0.4289 -0.86647,0.012 -1.73367,0.041 -2.59423,0.1509 -1.45283,0.1912 -2.89853,0.4888 -4.36695,0.5151 -1.8071,0.072 -3.62694,0.1942 -5.42788,-0.031 -1.69502,-0.1353 -3.39894,-0.042 -5.09805,-0.057 -1.77216,0.024 -3.54604,0.063 -5.31112,0.236 -2.06907,0.2092 -4.12702,0.5186 -6.20444,0.64 -1.79882,0.1818 -3.59355,0.3449 -5.40444,0.2639 -1.26728,-6e-4 -2.53475,-0.01 -3.80182,0.022 -1.37595,0.04 -2.75097,0.1163 -4.11786,0.2856 -1.65246,0.1966 -3.29894,0.3523 -4.96643,0.271 -1.44269,0 -2.88538,0 -4.32807,0 -1.66824,0 -3.33692,-0.01 -5.00426,-0.07 -1.7643,-0.077 -3.52693,-0.1994 -5.27581,-0.4536 -3.01194,-0.4302 -2.60627,-3.2699 0.40567,-2.8397 z"
       inkscape:connector-curvature="0" />
    <path
       style="fill:#00ff00;fill-opacity:1;stroke:#00ff00;stroke-opacity:0"
       id="path5218"
       d="m 530.02112,787.23874 c 1.16699,0.1776 2.33714,0.3302 3.51326,0.4315 0.76235,0.035 1.47159,0.3438 2.20707,0.5181 0.65467,0.286 1.32959,0.5032 2.00026,0.744 0.4585,0.2216 0.91532,0.4 1.4176,0.4769 0.59359,0.051 1.19044,0.046 1.78573,0.047 0.75848,-9e-4 1.51696,0 2.27544,0 0.91501,-0.08 1.79094,0.097 2.67801,0.2921 0.86042,0.1752 1.73655,0.2338 2.61213,0.2621 1.20172,0.013 2.34911,0.3335 3.55148,0.2755 1.16888,-0.098 2.33855,-0.1764 3.51075,-0.2197 1.03024,-0.037 2.06124,-0.038 3.09199,-0.039 1.48461,-6e-4 2.96922,5e-4 4.45383,10e-4 1.29799,4e-4 2.59598,6e-4 3.89397,6e-4 0.89947,1e-4 1.79894,1e-4 2.69841,1e-4 0.7387,0 1.4774,0 2.2161,0 0.71557,0.08 1.36966,-0.1349 2.0542,-0.3038 0.84316,-0.1952 1.7109,-0.2333 2.57265,-0.2616 0.32107,-0.01 0.6423,-0.015 0.96349,-0.011 1.03348,0.028 0.25442,0.3584 0.8781,2.6076 -2.19207,2.1099 -4.18133,0.043 -1.98927,-2.0667 l 0,0 c 0.36017,0.83 0.44782,2.3128 1.07249,2.3274 -0.27725,0 -0.55451,0 -0.83167,0.01 -0.66154,0.021 -1.32899,0.041 -1.97843,0.1795 -0.9015,0.2225 -1.80241,0.4658 -2.74155,0.3873 -0.7387,0 -1.4774,0 -2.2161,0 -0.89953,10e-5 -1.79906,10e-5 -2.6986,0 -1.29826,-10e-5 -2.59652,-2e-4 -3.89479,-6e-4 -1.48273,-6e-4 -2.96547,0 -4.4482,-10e-4 -0.99718,0 -1.99462,0 -2.99133,0.037 -1.16791,0.043 -2.33283,0.1254 -3.49768,0.2192 -1.27807,0.046 -2.49751,-0.203 -3.76535,-0.2747 -1.05097,-0.036 -2.10226,-0.1119 -3.13396,-0.3277 -0.69339,-0.153 -1.33408,-0.3122 -2.05588,-0.2249 -0.76184,10e-4 -1.52368,0 -2.28552,0 -0.74661,-10e-4 -1.49645,0.01 -2.23891,-0.084 -0.68454,-0.1144 -1.33955,-0.3121 -1.96295,-0.6213 -0.5495,-0.2229 -1.14688,-0.3334 -1.66358,-0.6414 -0.5993,-0.1443 -1.17853,-0.3923 -1.78677,-0.4501 -1.22916,-0.1065 -2.45244,-0.2637 -3.67209,-0.4496 -3.01194,-0.4303 -2.60627,-3.27 0.40567,-2.8397 z"
       inkscape:connector-curvature="0" />
    <path
       style="fill:#00ff00;fill-opacity:1;stroke:#00ff00;stroke-opacity:0"
       id="path5220"
       d="m 576.86204,788.72322 c 1.29968,0 2.59937,0 3.89905,0 0.47948,0 0.95896,0 1.43845,0 0.40531,0 0.81062,0 1.21594,0 0.57268,0 1.14536,0 1.71805,0 0.55827,0 1.11655,0 1.67483,0 0.34756,0 0.69512,0 1.04268,0 0.16226,0 0.32452,0 0.48678,0 3.04252,0 3.04252,2.8685 0,2.8685 l 0,0 c -0.16226,0 -0.32452,0 -0.48678,0 -0.34756,0 -0.69512,0 -1.04268,0 -0.55828,0 -1.11656,0 -1.67483,0 -0.57269,0 -1.14537,0 -1.71805,0 -0.40532,0 -0.81063,0 -1.21594,0 -0.47949,0 -0.95897,0 -1.43845,0 -1.29968,0 -2.59937,0 -3.89905,0 -3.04252,0 -3.04252,-2.8685 0,-2.8685 z"
       inkscape:connector-curvature="0" />
    <path
       style="fill:#00ff00;fill-opacity:1;stroke:#00ff00;stroke-opacity:0"
       id="path5222"
       d="m 597.95276,788.8613 c 1.25712,-0.6042 2.5626,-1.0881 3.91398,-1.4299 0.91189,-0.1642 1.79446,0.088 2.68452,0.2428 0.60029,0.087 1.20803,0.086 1.81316,0.093 0.90656,-0.017 1.78021,0.2707 2.66151,0.4466 0.77416,0.1215 1.56159,0.1179 2.34323,0.1276 1.11209,0.01 2.22422,0 3.33633,0 1.2958,0.082 2.56452,-0.083 3.84488,-0.25 1.25174,-0.1659 2.51172,-0.254 3.77278,-0.306 0.9235,-0.078 1.79757,0.2678 2.69675,0.4109 1.05665,0.091 2.10266,0.1394 3.14874,0.3275 1.09028,0.2238 2.19889,0.3102 3.30869,0.3555 1.18903,0.036 2.37876,0.037 3.56823,0.038 0.98169,-0.084 1.9259,0.1748 2.87618,0.3725 0.74957,0.1359 1.51165,0.168 2.27141,0.1899 0.8286,0.1369 1.61609,0.395 2.45266,0.4897 0.81797,-0.1254 1.63306,-0.2638 2.45457,-0.3653 0.89173,-0.097 1.78982,-0.1094 2.68593,-0.118 1.00617,0 2.01236,0 3.01853,-10e-4 0.82481,10e-4 1.64962,10e-4 2.47444,0 0.7707,-0.091 1.47677,0.2011 2.20077,0.4012 0.50383,0.1395 1.0328,0.1475 1.55208,0.166 0.60865,0.014 1.21753,0.011 1.8263,0.01 0.64393,0 1.28786,0 1.93179,0 0.44695,-0.027 0.9313,-0.2591 1.41931,-0.3782 0.63548,-0.1458 1.28825,-0.1753 1.93748,-0.1942 0.33428,-0.01 0.66871,-0.01 1.00304,0 0.23604,0 -0.0571,-6e-4 0.11864,10e-4 3.04232,0.035 3.00904,2.9036 -0.0333,2.8683 l 0,0 c -0.15967,0 0.11777,10e-4 -0.10606,0 -0.30008,0 -0.60024,0 -0.90027,0 -0.45616,0.013 -0.91629,0.024 -1.36412,0.1196 -0.69201,0.1496 -1.34474,0.5079 -2.07277,0.454 -0.64287,4e-4 -1.28575,10e-4 -1.92862,0 -0.64508,10e-4 -1.29029,0.01 -1.93522,-0.012 -0.7517,-0.028 -1.5116,-0.063 -2.23833,-0.275 -0.58097,-0.17 -0.83594,-0.3536 -1.41153,-0.2903 -0.82561,-2e-4 -1.65121,-6e-4 -2.47682,0 -0.99608,-10e-4 -1.99217,0 -2.98824,10e-4 -0.78805,0.01 -1.57791,0.015 -2.36251,0.097 -1.04666,0.1285 -2.08165,0.3734 -3.14042,0.3671 -0.74761,-0.091 -1.48894,-0.2174 -2.20093,-0.4712 -0.92885,-0.027 -1.86007,-0.074 -2.77491,-0.2495 -0.76254,-0.1601 -1.50068,-0.3944 -2.28968,-0.3118 -1.22901,-2e-4 -2.4583,0 -3.68683,-0.04 -1.24125,-0.053 -2.48118,-0.1511 -3.70102,-0.3989 -1.0291,-0.1883 -2.06331,-0.1957 -3.10165,-0.3194 -0.70768,-0.1187 -1.40082,-0.3777 -2.11479,-0.3754 -1.17615,0.048 -2.35135,0.1294 -3.5188,0.2842 -1.40105,0.183 -2.79612,0.352 -4.213,0.2741 -1.12528,10e-4 -2.25058,0 -3.37584,0 -0.9583,-0.012 -1.9233,-0.015 -2.86994,-0.1831 -0.70729,-0.1418 -1.40996,-0.3839 -2.13141,-0.391 -0.75922,-0.01 -1.52134,-0.014 -2.27305,-0.1353 -0.49939,-0.087 -0.99609,-0.1879 -1.4933,-0.2865 -1.15076,0.2864 -2.2583,0.7045 -3.32975,1.2134 -2.72132,1.3606 -4.00416,-1.2051 -1.28284,-2.5657 z"
       inkscape:connector-curvature="0" />
    <path
       style="fill:#00ff00;fill-opacity:1;stroke:#00ff00;stroke-opacity:0"
       id="path5243"
       d="m 89.918383,555.74142 c -1.605875,-0.13047 -3.172893,0.12003 -4.723411,0.50689 -1.132048,0.19513 -2.180291,0.61904 -3.228183,1.06743 -1.125146,0.37035 -2.175029,0.88212 -3.195349,1.47628 -1.394181,0.91809 -2.823557,1.78265 -4.204127,2.72107 -1.192641,0.78815 -2.051776,1.9399 -2.980131,3.00186 -1.042791,1.07844 -1.81036,2.37923 -2.530099,3.68517 -0.938928,1.62599 -1.739646,3.32242 -2.40771,5.07671 -0.665253,1.84177 -1.354957,3.6831 -1.769379,5.60037 -0.15722,1.21291 -0.509137,2.4991 -0.154975,3.7032 0.266888,1.19261 1.057595,1.99374 1.951213,2.76584 1.480054,1.25159 3.163446,2.23827 4.843545,3.19383 1.46976,0.84157 2.98189,1.59149 4.540619,2.25233 1.340284,0.55926 2.744058,0.84277 4.179721,1.00599 1.666057,0.2346 3.328847,0.61806 5.018419,0.57631 1.320826,-0.0437 2.612654,-0.3005 3.830738,-0.81184 1.523801,-0.70486 2.927213,-1.63631 4.263326,-2.64612 0.917459,-0.68715 1.594241,-1.51029 2.191176,-2.46874 0.187879,-0.24862 0.304553,-0.51268 0.39082,-0.80675 0.998173,-2.87413 3.707928,-1.93304 2.709754,0.94109 l 0,0 c -0.178292,0.4835 -0.36082,0.96054 -0.66583,1.38238 -0.782963,1.2566 -1.714678,2.33733 -2.899364,3.24274 -1.536822,1.15553 -3.150788,2.22143 -4.909228,3.01257 -1.560105,0.62054 -3.190073,0.98713 -4.875237,1.02297 -1.814043,0.008 -3.599408,-0.297 -5.385435,-0.59524 -1.706813,-0.20169 -3.379245,-0.54753 -4.971602,-1.21568 -1.658932,-0.7076 -3.272913,-1.5022 -4.838145,-2.39977 -1.848074,-1.05506 -3.697007,-2.1454 -5.31894,-3.5332 -1.318395,-1.17683 -2.446939,-2.47248 -2.844218,-4.24659 -0.361451,-1.66508 -0.185111,-3.32588 0.141843,-4.99041 0.456879,-2.05501 1.165987,-4.03859 1.892688,-6.01197 0.722485,-1.87431 1.56786,-3.69519 2.574194,-5.43502 0.819497,-1.48576 1.708119,-2.9554 2.884575,-4.19053 1.092519,-1.24372 2.11746,-2.57266 3.527065,-3.48519 1.436993,-0.97346 2.919189,-1.87852 4.372703,-2.8271 1.121435,-0.65133 2.274959,-1.22446 3.509219,-1.63393 1.188428,-0.50819 2.385974,-0.97944 3.664731,-1.21396 1.892923,-0.46845 3.814756,-0.74729 5.770811,-0.56936 3.019031,0.37738 2.663235,3.22375 -0.355797,2.84637 z"
       inkscape:connector-curvature="0" />
    <path
       style="fill:#00ff00;fill-opacity:1;stroke:#00ff00;stroke-opacity:0"
       id="path5245"
       d="m 81.946386,573.60595 c 2.212514,-0.25533 4.439936,-0.32307 6.655759,-0.53213 2.089476,-0.22642 4.182845,-0.41587 6.280269,-0.55019 1.5126,-0.10318 2.335734,-0.22383 2.912652,1.5652 0.05032,1.53479 0.178758,3.06242 0.299425,4.59506 0.127332,2.96729 0.312265,5.92785 0.533943,8.88965 0.12161,1.99313 0.56808,3.92217 1.085818,5.8407 0.375218,1.1408 0.402388,2.0193 -1.940838,0.0478 1.570487,-2.60587 4.027316,-1.1252 2.456836,1.48067 l 0,0 c -0.16075,0.22765 -0.20486,0.65598 -0.482236,0.68296 -2.550482,0.24809 -2.419413,-0.0102 -2.803224,-1.46414 -0.564697,-2.09281 -1.038982,-4.20151 -1.176877,-6.37393 -0.221396,-2.95813 -0.407756,-5.91512 -0.53311,-8.87881 -0.110925,-1.41159 -0.281091,-2.82162 -0.24894,-4.23966 0.370242,0.57621 0.618029,0.5311 1.160679,0.66036 0.07663,0.0182 -0.157411,0.007 -0.236096,0.0105 -0.364567,0.0177 -0.446788,0.0234 -0.844886,0.0462 -2.069493,0.13226 -4.13485,0.32045 -6.196496,0.5436 -2.30475,0.21351 -4.619686,0.3028 -6.922678,0.54458 -3.042526,0 -3.042526,-2.86852 0,-2.86852 z"
       inkscape:connector-curvature="0" />
    <path
       style="fill:#00ff00;fill-opacity:1;stroke:#00ff00;stroke-opacity:0"
       id="path5247"
       d="m 107.05006,576.46516 c 0.26351,1.80852 0.37574,3.63298 0.45365,5.45734 0.0386,2.02031 0.0501,4.03242 0.22751,6.04594 0.14083,1.82553 0.43639,3.6958 1.23711,5.35791 0.43089,0.88785 0.85144,0.82468 1.76562,0.91757 1.07495,-0.0565 2.12635,-0.22806 3.1557,-0.53308 1.19729,-0.44409 2.3253,-1.02674 3.42432,-1.67272 1.271,-0.86848 2.23473,-2.05331 2.85782,-3.45437 0.44096,-1.18845 0.32025,-2.50739 0.13383,-3.73934 -0.17874,-1.41556 -0.62335,-2.77106 -0.92416,-4.16117 -0.20305,-0.91944 -0.29827,-1.85606 -0.33482,-2.7954 0.26522,0.37503 -0.23789,-1.24333 -0.0109,-0.77427 0.73148,1.51129 0.38761,1.72371 2.23683,1.0042 0.12147,0.30862 0.20129,-0.50804 0.29001,-0.37673 0.094,0.1392 0.22222,2.2064 0.26483,2.50166 0.3407,2.25421 0.81546,4.4878 1.30056,6.71519 0.52984,2.33077 0.71282,4.7213 1.28757,7.04201 0.22532,1.00212 0.59808,1.97566 0.7732,2.98993 0.0153,0.0889 -0.0446,-0.17477 -0.0669,-0.26216 -0.49616,-0.58116 -0.14336,-0.29804 -1.22943,-0.57456 2.95369,-0.72985 3.6418,2.05491 0.68811,2.78476 l 0,0 c -1.56771,-0.17523 -0.99481,0.15298 -1.86922,-0.6553 -0.55295,-1.1321 -0.70455,-2.40133 -1.0823,-3.60175 -0.56731,-2.34795 -0.79365,-4.75315 -1.30394,-7.11289 -0.49961,-2.29703 -0.98829,-4.60038 -1.33815,-6.92524 -0.14415,-1.04495 -0.49345,-2.78811 -0.18975,-3.8133 0.0699,-0.23586 0.23806,-0.43055 0.35708,-0.64583 0.37407,-0.19033 0.70374,-0.53873 1.12221,-0.57099 1.31208,-0.10113 1.67486,1.17124 1.63664,2.16765 0.0277,0.77289 0.10554,1.54353 0.27273,2.29994 0.31086,1.45622 0.78274,2.87557 0.95963,4.35995 0.24413,1.79607 0.34513,3.64897 -0.37459,5.3573 -0.91864,1.9083 -2.20597,3.55757 -4.00758,4.71614 -1.30089,0.7591 -2.63788,1.44714 -4.06186,1.94854 -1.39885,0.41126 -2.84291,0.64588 -4.30558,0.63036 -1.7665,-0.22834 -3.26394,-0.82599 -4.03133,-2.56244 -0.89359,-1.9871 -1.35492,-4.13702 -1.49086,-6.31055 -0.18011,-2.05662 -0.20166,-4.11155 -0.23591,-6.17496 -0.0734,-1.72947 -0.17777,-3.45918 -0.42742,-5.17367 -0.43028,-3.01195 2.40942,-3.41762 2.83969,-0.40567 z"
       inkscape:connector-curvature="0" />
    <path
       style="fill:#00ff00;fill-opacity:1;stroke:#00ff00;stroke-opacity:0"
       id="path5249"
       d="m 133.44189,583.84711 c 2.19929,-1.0717 4.42233,-2.09429 6.66047,-3.08217 2.17867,-0.93992 4.35952,-1.89846 6.26832,-3.32316 0.9577,-0.77255 1.47709,-1.56686 1.40148,-2.7986 -0.17414,-0.9463 -0.81562,-1.62848 -1.63134,-2.08872 -1.27302,-0.57002 -2.61022,-0.42959 -3.92773,-0.11433 -1.77474,0.69924 -3.15908,2.00462 -4.44878,3.36829 -1.52453,1.62106 -2.26456,3.65917 -2.90069,5.74192 -0.60939,2.01146 -0.78511,4.07011 -0.54444,6.15042 0.26097,1.72352 1.42329,2.81771 2.75392,3.80925 1.82799,1.1856 3.93896,1.30375 6.0494,1.18811 2.00083,-0.37297 3.97211,-1.09519 5.5005,-2.46921 0.11189,-0.14294 0.22379,-0.28589 0.33568,-0.42883 1.95489,-2.33139 4.15295,-0.48831 2.19806,1.84309 l 0,0 c -0.21911,0.2518 -0.43821,0.50361 -0.65732,0.75541 -2.06589,1.74268 -4.55818,2.78219 -7.23685,3.16464 -2.79317,0.12326 -5.54481,-0.14148 -7.92096,-1.76621 -1.95449,-1.49778 -3.52415,-3.24703 -3.87412,-5.78595 -0.2555,-2.46898 -0.082,-4.91529 0.6532,-7.3002 0.76948,-2.50949 1.72937,-4.93619 3.56607,-6.88037 1.68997,-1.7652 3.52283,-3.41079 5.89142,-4.18773 2.08029,-0.45409 4.15691,-0.53887 6.09688,0.48796 1.61642,1.07785 2.78275,2.48492 2.96557,4.49481 -0.0446,2.27323 -0.79174,3.69146 -2.5637,5.12213 -2.0908,1.53626 -4.43165,2.63503 -6.8166,3.64169 -2.1479,0.9474 -4.27866,1.93318 -6.39526,2.94833 -2.64165,1.50952 -4.06484,-0.98106 -1.42318,-2.49057 z"
       inkscape:connector-curvature="0" />
    <path
       style="fill:#00ff00;fill-opacity:1;stroke:#00ff00;stroke-opacity:0"
       id="path5251"
       d="m 168.45918,571.12163 c -1.05832,-1.0439 -2.34754,-1.43796 -3.79976,-1.45501 -1.14336,0.0499 -2.43706,0.29202 -3.31627,1.08266 -0.58638,0.50713 -0.34446,1.02954 -0.0793,1.654 0.94941,1.26598 2.10923,2.35435 3.16448,3.53166 1.12628,1.20209 2.08674,2.55428 2.75132,4.06173 0.6315,1.49217 0.49194,2.97285 0.074,4.49036 -0.3911,1.36502 -1.21506,2.43 -2.15162,3.45883 -1.06099,1.16457 -2.526,1.47254 -4.02224,1.6481 -0.87043,0.0623 -0.45171,0.0382 -1.25601,0.0749 -3.03948,0.13603 -3.16773,-2.72963 -0.12825,-2.86565 l 0,0 c 0.69192,-0.0304 0.33821,-0.0109 1.06108,-0.0595 0.79546,-0.086 1.63854,-0.12219 2.22445,-0.72914 0.63361,-0.69565 1.23861,-1.36388 1.50916,-2.29684 0.25107,-0.88966 0.43287,-1.69717 0.0531,-2.59054 -0.50562,-1.23461 -1.36081,-2.297 -2.25128,-3.27795 -1.29084,-1.44097 -2.79261,-2.73647 -3.72071,-4.45671 -0.66028,-1.93528 -0.61417,-3.4721 1.0029,-4.90136 1.5097,-1.11791 3.29561,-1.6998 5.18429,-1.69136 2.17455,0.10607 4.14994,0.71796 5.72908,2.29347 2.15139,2.1514 0.12304,4.17975 -2.02835,2.02836 z"
       inkscape:connector-curvature="0" />
    <path
       style="fill:#00ff00;fill-opacity:1;stroke:#00ff00;stroke-opacity:0"
       id="path5253"
       d="m 185.19699,567.21217 c -1.41891,-0.19018 -2.85559,-0.42177 -4.27344,-0.12177 -0.70215,0.3122 -1.3828,0.80824 -1.79855,1.46559 -0.43011,0.65125 -0.27475,0.8042 -0.0608,1.45012 0.55937,1.08245 1.56298,1.90667 2.42918,2.74798 1.3462,1.11734 2.6918,2.21926 3.89591,3.49112 1.14861,1.28737 1.7794,2.86788 2.17022,4.52401 0.26634,1.50375 0.39281,3.03828 0.26558,4.56098 -0.0865,1.47635 -0.6984,2.68311 -1.57459,3.84008 -1.31295,1.38626 -3.10836,1.93994 -4.91802,2.34469 -1.78502,0.37031 -3.60115,0.5707 -5.39023,0.91004 -1.19398,0.32239 -2.45351,0.3364 -3.62778,0.72367 -2.89927,0.92263 -3.76913,-1.81082 -0.86987,-2.73345 l 0,0 c 1.2966,-0.40318 2.65108,-0.49924 3.97125,-0.81003 1.7622,-0.32461 3.54487,-0.53788 5.30286,-0.89232 1.14269,-0.24351 2.32709,-0.54382 3.25628,-1.28917 0.57459,-0.73417 0.95679,-1.40828 0.99503,-2.37091 0.14686,-1.20893 -0.0444,-2.44716 -0.20721,-3.64568 -0.25125,-1.1595 -0.68026,-2.27897 -1.45929,-3.19266 -1.17211,-1.24542 -2.51243,-2.29141 -3.809,-3.40294 -1.2051,-1.1711 -2.54025,-2.32813 -3.16233,-3.93103 -0.47215,-1.5097 -0.45021,-2.65013 0.45538,-3.98727 0.91656,-1.22844 2.11897,-2.19283 3.61263,-2.62319 1.73705,-0.29679 3.46762,-0.18439 5.20247,0.10244 3.01194,0.43028 2.60627,3.26997 -0.40567,2.8397 z"
       inkscape:connector-curvature="0" />
    <path
       style="fill:#00ff00;fill-opacity:1;stroke:#00ff00;stroke-opacity:0"
       id="path5259"
       d="m 193.04219,576.99397 c 1.83239,-0.25479 3.64642,-0.6149 5.482,-0.85828 0.80473,-0.13539 1.63983,-0.0482 2.3946,-0.38576 -0.21183,0.06 -0.39312,0.22316 -0.44649,0.29529 -0.15019,-0.63477 -0.32898,-1.22934 -0.63578,-1.80658 -0.48285,-0.50692 -0.85687,-1.15351 -1.40012,-1.60114 -0.41004,-0.30146 -0.77047,-0.95422 -1.26339,-1.11129 -0.30189,-0.1763 -0.62272,-0.19279 -0.96292,-0.20967 -0.75974,-0.0855 -0.82483,-0.0219 -1.42106,0.26808 -0.7389,0.42003 -1.26227,1.13804 -1.76301,1.80912 -0.57774,0.89209 -0.88618,1.90503 -1.2656,2.88857 -0.65569,1.69959 -1.03328,3.46997 -1.432,5.24006 -0.43436,1.36689 -0.40938,2.74364 -0.32212,4.15195 0.0978,1.10522 0.53416,1.96932 1.18732,2.83725 0.98636,1.10238 2.15,1.90619 3.5469,2.37454 1.5333,0.42613 3.06013,0.52395 4.59961,0.1365 0.59105,-0.24684 0.30731,-0.10496 0.85206,-0.424 2.66598,-1.46611 4.04825,1.0474 1.38227,2.51352 l 0,0 c -1.00559,0.53361 -0.48563,0.30021 -1.56052,0.69874 -2.08816,0.48998 -4.16488,0.39592 -6.22798,-0.21972 -1.92377,-0.70179 -3.57639,-1.79097 -4.89991,-3.37561 -0.96155,-1.31965 -1.60962,-2.71434 -1.74286,-4.36517 -0.10222,-1.67409 -0.10217,-3.33353 0.38698,-4.95908 0.43051,-1.90654 0.84795,-3.81194 1.55426,-5.64218 0.47632,-1.23255 0.88512,-2.49675 1.65581,-3.58846 0.78744,-1.02723 1.61625,-2.06523 2.7978,-2.65739 0.91996,-0.4445 1.81749,-0.67926 2.84233,-0.55018 0.80147,0.0524 1.57734,0.19602 2.27634,0.61813 0.63782,0.4182 1.20691,0.93573 1.74465,1.47647 0.73915,0.72579 1.40914,1.53147 1.99107,2.38875 0.4205,0.84562 0.72017,1.72291 0.91124,2.64858 0.10683,1.21626 -0.16267,2.16191 -1.2748,2.80994 -1.00536,0.4099 -2.05345,0.49692 -3.12805,0.58442 -1.82589,0.24156 -3.62992,0.60216 -5.45296,0.85429 -3.01195,0.43028 -3.41762,-2.40941 -0.40567,-2.83969 z"
       inkscape:connector-curvature="0" />
    <path
       style="fill:#00ff00;fill-opacity:1;stroke:#00ff00;stroke-opacity:0"
       id="path5265"
       d="m 225.73881,569.39759 c -1.48775,-0.41739 -3.05722,-0.39469 -4.59073,-0.41021 -1.32639,0.0836 -2.62205,0.34763 -3.88522,0.75235 -1.26146,0.4021 -2.5228,0.88938 -3.66817,1.56001 -0.71981,0.53106 -1.28429,1.28311 -1.69744,2.07223 -0.31935,0.81557 -0.51877,1.72494 -0.41542,2.60152 0.3686,1.23215 1.45142,2.01716 2.42844,2.76098 1.49825,0.95437 3.02646,1.85847 4.44926,2.92464 1.29568,0.89297 2.6354,1.66195 3.73281,2.80483 1.26221,1.19205 1.65239,2.38917 1.67033,4.09925 -0.0984,1.99836 -1.03877,3.66442 -2.17251,5.25249 -1.51174,1.84984 -3.57683,3.08851 -5.68868,4.1381 -2.40368,1.14876 -4.97733,1.67443 -7.6239,1.73929 -1.63041,-0.0753 -2.42227,-0.34978 -3.62805,-1.4241 -2.11338,-2.18874 -0.0498,-4.18126 2.06356,-1.99252 l 0,0 c 0.0113,0.49457 1.22104,0.49183 1.50276,0.54877 2.22809,-0.0399 4.39176,-0.48497 6.41828,-1.44482 1.69574,-0.82582 3.371,-1.80516 4.62698,-3.23922 0.79317,-1.09359 1.51231,-2.20161 1.63304,-3.58355 0.0232,-1.01338 -0.11083,-1.41105 -0.90129,-2.13906 -0.93142,-1.05896 -2.26733,-1.59548 -3.35727,-2.46677 -1.42783,-1.07801 -2.98772,-1.95435 -4.47548,-2.9446 -1.63685,-1.27198 -3.20099,-2.67962 -3.5398,-4.83339 -0.07,-1.43801 0.13138,-2.86825 0.76066,-4.17905 0.69871,-1.24408 1.58324,-2.41105 2.79947,-3.19067 1.33821,-0.74283 2.75567,-1.35691 4.2216,-1.80067 1.55388,-0.48195 3.14453,-0.81792 4.77567,-0.88441 1.79058,0.0189 3.61467,0.0203 5.34914,0.52043 2.92546,0.83584 2.13742,3.594 -0.78804,2.75815 z"
       inkscape:connector-curvature="0" />
    <path
       style="fill:#00ff00;fill-opacity:1;stroke:#00ff00;stroke-opacity:0"
       id="path5267"
       d="m 237.85876,575.67384 c -0.71976,1.06974 -1.56686,2.31961 -2.91185,2.63993 -0.30083,0.0716 -0.61703,0.0425 -0.92554,0.0638 -1.70392,-0.39688 -2.39764,-1.74332 -2.21752,-3.39207 0.48371,-1.84844 1.78971,-2.10594 3.44542,-1.5824 1.38655,0.59741 2.43621,1.61129 3.15392,2.92048 0.73116,1.14621 0.85935,1.7732 0.45898,3.06153 -0.2601,0.23186 -0.46909,0.53886 -0.7803,0.69557 -1.31809,0.66375 -2.41569,-0.66408 -2.9888,-1.62414 -0.19706,-0.38757 -0.35982,-0.79104 -0.50125,-1.20179 -0.0281,-0.0815 -0.13915,-0.30868 -0.0799,-0.246 0.10509,0.11125 0.11668,0.28685 0.20953,0.40851 0.0585,0.0653 0.12914,0.10205 0.20735,0.13669 -2.89748,-0.92821 -2.02236,-3.65998 0.87512,-2.73178 l 0,0 c 0.27418,0.0985 0.5351,0.21012 0.763,0.39904 0.53889,0.52712 0.77296,1.1504 1.03217,1.83945 0.37011,0.85813 -0.43189,-0.29834 -1.28605,1.0091 -0.0229,0.15107 -0.048,0.30183 -0.0688,0.45321 -0.004,0.0298 0.002,-0.0757 0.0307,-0.0849 0.0183,-0.006 0.0636,0.0329 0.0554,0.0156 -0.13523,-0.28513 -0.36504,-0.51932 -0.47768,-0.81739 -0.29495,-0.69318 -0.91557,-1.17146 -1.56068,-1.52909 -0.75986,-0.38603 0.49863,-0.0755 0.3554,-0.74366 -0.0614,0.26628 0.001,0.0952 -0.17412,0.0516 -0.0341,-0.009 0.0628,0.0846 0.0315,0.10059 -0.11803,0.0602 -0.28125,-0.18004 -0.39746,-0.005 -0.26642,0.27087 0.24804,-0.0309 0.26338,-0.0437 0.45703,-0.37974 0.77905,-0.8941 1.10131,-1.38393 1.68769,-2.53153 4.07445,-0.94036 2.38676,1.59117 z"
       inkscape:connector-curvature="0" />
    <path
       style="fill:#00ff00;fill-opacity:1;stroke:#00ff00;stroke-opacity:0"
       id="path5269"
       d="m 234.98637,590.87426 c 0.14508,0.28463 1.39932,2.63743 1.1227,2.82868 -0.74374,0.51421 -1.68844,0.64764 -2.53266,0.97146 -1.25823,-1.06503 -1.71954,-2.66826 -1.86005,-4.25269 0.0714,-1.5272 1.03338,-3.05129 2.75312,-2.90974 0.28106,0.0231 0.5477,0.13466 0.82155,0.20198 1.43209,0.67904 1.99233,2.01213 2.32778,3.46866 0.31246,1.61421 -0.10845,2.56691 -1.58437,3.32264 -1.73964,0.61231 -3.07039,-0.31702 -4.17666,-1.58636 -0.88706,-1.35194 -1.38526,-3.24537 -0.42635,-4.72135 0.1996,-0.30721 0.48928,-0.54542 0.73392,-0.81813 1.09629,-0.81302 2.53137,-1.32454 3.82837,-0.60582 0.27413,0.1519 0.47769,0.40583 0.71654,0.60874 0.93802,1.25845 1.09812,2.74236 0.91369,4.25649 -0.23615,1.08223 -0.68606,1.99148 -1.4787,2.74645 -0.68865,-0.1788 -1.40789,-0.26592 -2.06594,-0.53642 -0.25578,-0.10515 -0.68177,-1.47872 -0.74735,-1.74985 -0.0623,-0.32146 -0.0358,-0.16963 -0.0813,-0.45515 -0.46829,-3.00627 2.36605,-3.44778 2.83434,-0.44151 l 0,0 c 0.0232,0.1559 0.01,0.0734 0.041,0.24739 0.22035,1.04449 0.98353,0.8675 -1.5304,0.52161 -0.86186,0.94778 0.16432,-0.32128 0.18442,-0.70751 0.0964,-0.6466 0.0659,-1.24392 -0.12018,-1.87543 0.768,-0.23572 -0.42233,-0.086 -0.53412,0.0851 -0.55999,-0.12753 -0.36452,1.4007 -0.068,1.60461 0.20588,0.26759 0.51746,0.81404 0.85501,0.78701 -0.0226,0.19428 0.0271,-0.17391 -0.10496,0.26083 -0.10306,0.33939 0.16103,-0.0335 0.0122,-0.31486 -0.10456,-0.4841 -0.20469,-0.97208 -0.48226,-1.39166 0.4123,-0.11649 0.53796,-0.80785 0.24127,-0.18129 0.003,0.70687 0.23018,1.49213 0.62966,2.07741 -3.34894,2.31805 -1.96349,0.44453 -1.86284,1.74995 0.007,0.0878 -0.0574,-0.16677 -0.0943,-0.2467 -0.25952,-0.56195 -0.56793,-1.10132 -0.83085,-1.6617 -1.36066,-2.72132 1.20502,-4.00416 2.56568,-1.28284 z"
       inkscape:connector-curvature="0" />
    <path
       style="fill:#00ff00;fill-opacity:1;stroke:#00ff00;stroke-opacity:0"
       id="path5271"
       d="m 410.40239,559.6597 c -0.24235,2.5645 -0.47715,5.13102 -0.69087,7.69875 -0.28336,3.81024 -0.32226,7.63243 -0.35842,11.45122 0.0677,3.331 -0.11831,6.65281 -0.36971,9.97219 -0.0711,0.82826 -0.12769,1.65828 -0.22121,2.48448 -0.0425,0.52317 -0.49372,0.957 -0.81097,1.24899 -1.9632,1.59158 -2.60342,-0.70448 -2.65615,-1.76516 -0.11845,-3.04022 2.7479,-3.15189 2.86635,-0.11167 l 0,0 c 0.008,0.4851 -0.0198,-0.0838 -0.20506,-0.11075 -1.83281,-0.26664 -2.53023,0.42237 -1.9424,-0.12795 0.76537,-0.69861 0.45568,-0.37962 -0.10189,0.54212 0.0906,-0.79022 0.14118,-1.58464 0.21101,-2.37677 0.24682,-3.25639 0.43032,-6.51478 0.36164,-9.78266 0.0369,-3.88919 0.0778,-7.7818 0.36819,-11.66216 0.21872,-2.62368 0.45569,-5.24651 0.7098,-7.8663 0.43028,-3.01194 3.26997,-2.60627 2.83969,0.40567 z"
       inkscape:connector-curvature="0" />
    <path
       style="fill:#00ff00;fill-opacity:1;stroke:#00ff00;stroke-opacity:0"
       id="path5273"
       d="m 412.66001,560.44733 c 2.37277,1.81842 4.13346,4.2014 5.70021,6.7138 1.95044,3.24623 3.11493,6.85439 4.13577,10.4772 0.54864,2.28401 1.11657,4.56206 1.55525,6.87031 0.0282,0.15784 0.0571,0.31556 0.0847,0.47353 0.15077,0.86584 0.0287,0.0139 -0.0689,0.0133 -2.83117,-0.0189 -2.44321,1.24294 -2.7196,0.14 -0.4479,-3.00938 2.38937,-3.43166 2.83727,-0.42228 l 0,0 c 0.18074,1.52293 0.35478,1.08899 -2.60164,1.71696 -0.14597,0.031 -0.33452,-1.32014 -0.34995,-1.38633 -0.42256,-2.22719 -0.97305,-4.42435 -1.4985,-6.62892 -0.94404,-3.36428 -2.01093,-6.72037 -3.81105,-9.74016 -1.35876,-2.19713 -2.87605,-4.28643 -4.9308,-5.89317 -2.47581,-1.76843 -0.80851,-4.10264 1.66729,-2.33421 z"
       inkscape:connector-curvature="0" />
    <path
       style="fill:#00ff00;fill-opacity:1;stroke:#00ff00;stroke-opacity:0"
       id="path5275"
       d="m 432.50261,560.02966 c -1.11203,2.00185 -1.93501,4.12456 -2.72083,6.26949 -1.0524,2.70022 -1.87728,5.47839 -2.88132,8.19592 -0.71411,2.06864 -1.23904,4.19347 -1.99606,6.2481 -0.31214,1.03145 -0.8706,1.95645 -1.37573,2.89871 -0.36394,0.73033 -1.09328,1.17843 -1.51216,1.85917 -1.66294,2.54786 -4.06509,0.98003 -2.40214,-1.56783 l 0,0 c 0.406,-0.60681 0.92359,-1.1005 1.39142,-1.65644 0.44663,-0.81979 0.93773,-1.62599 1.20765,-2.52717 0.76005,-2.05377 1.26722,-4.18527 1.99653,-6.24938 1.00452,-2.71438 1.82446,-5.49156 2.87851,-8.18828 0.82325,-2.245 1.68979,-4.46726 2.84844,-6.56513 1.36066,-2.72132 3.92635,-1.43847 2.56569,1.28284 z"
       inkscape:connector-curvature="0" />
    <path
       style="fill:#00ff00;fill-opacity:1;stroke:#00ff00;stroke-opacity:0"
       id="path5277"
       d="m 434.98331,559.90525 c -0.55942,2.66731 -0.76647,5.38843 -0.77831,8.10852 0.12436,3.66483 0.15796,7.33514 0.37011,10.99616 0.20237,2.75762 0.40047,5.51521 0.51514,8.27805 0.0295,0.86038 0.0624,1.72093 0.0694,2.58188 -0.54663,-1.51655 -0.006,-0.88041 -2.27236,-1.05106 2.04819,-2.24986 4.16938,-0.3188 2.12119,1.93106 l 0,0 c -2.63494,0.22393 -1.94957,0.88141 -2.71726,-0.85713 -0.006,-0.82897 -0.0393,-1.65754 -0.0671,-2.48597 -0.1137,-2.74752 -0.31269,-5.48968 -0.51287,-8.23207 -0.21265,-3.72169 -0.25377,-7.45227 -0.37479,-11.17784 0.0213,-2.92349 0.2373,-5.84802 0.84657,-8.71387 0.66002,-2.97007 3.46023,-2.3478 2.80021,0.62227 z"
       inkscape:connector-curvature="0" />
    <path
       style="fill:#00ff00;fill-opacity:1;stroke:#00ff00;stroke-opacity:0"
       id="path5279"
       d="m 450.64473,577.31033 c 0,2.54063 0,5.08126 0,7.6219 0,1.50028 0,3.00056 0,4.50085 0,0.13047 0,0.26094 0,0.39142 0,3.04252 -2.86852,3.04252 -2.86852,0 l 0,0 c 0,-0.13048 0,-0.26095 0,-0.39142 0,-1.50029 0,-3.00057 0,-4.50085 0,-2.54064 0,-5.08127 0,-7.6219 0,-3.04253 2.86852,-3.04253 2.86852,0 z"
       inkscape:connector-curvature="0" />
    <path
       style="fill:#00ff00;fill-opacity:1;stroke:#00ff00;stroke-opacity:0"
       id="path5283"
       d="m 467.08864,574.17966 c -1.33599,-0.1074 -2.48556,0.3647 -3.59801,1.04816 -1.02732,0.61863 -2.0711,1.24743 -2.8753,2.14853 -0.15554,0.21146 -0.33359,0.41253 -0.47761,0.63242 -0.0212,0.0324 0.0568,-0.0533 0.0798,-0.0846 0.12303,-0.16737 0.0729,-0.22265 0.0929,-0.48645 -0.0475,-0.1287 -0.11309,-0.25209 -0.14236,-0.3861 -0.0243,-0.11112 0.22241,0.0492 0.33076,0.0838 0.58869,0.18797 1.19023,0.35028 1.78793,0.508 1.58488,0.4648 3.09678,1.152 4.57192,1.88831 1.24891,0.5391 2.35052,1.27924 3.25502,2.29217 1.02244,1.37578 1.16245,2.93713 0.91342,4.58039 -0.28592,1.5366 -0.76493,3.01815 -1.39476,4.44569 -0.50207,1.51316 -1.60034,2.33393 -3.03819,2.87814 -1.8499,0.47298 -3.77554,0.49269 -5.67368,0.53413 -1.39492,0.10673 -2.6066,-0.24376 -3.65381,-1.15553 -0.60244,-1.13801 -0.44293,-0.53079 -0.4756,-1.82242 0.41623,-3.01392 3.25778,-2.62149 2.84155,0.39243 l 0,0 c -0.14018,-0.47409 -0.0188,-0.27508 -0.34659,-0.60732 0.29921,0.32092 1.03093,0.38446 1.57221,0.32499 1.60018,-0.0345 3.21815,-0.0505 4.79123,-0.37478 0.76264,-0.21488 1.12047,-0.54125 1.36037,-1.33189 0.53893,-1.20951 0.94298,-2.46564 1.19009,-3.76865 0.16272,-0.77265 0.15693,-1.52986 -0.26385,-2.22799 -0.59826,-0.76624 -1.50455,-1.18307 -2.36271,-1.59491 -1.29793,-0.65367 -2.63206,-1.25885 -4.02456,-1.68078 -1.12123,-0.30069 -2.69711,-0.54302 -3.51849,-1.45108 -0.20406,-0.22559 -0.32485,-0.51439 -0.48727,-0.77159 -0.15737,-1.37339 0.11788,-1.76308 0.95378,-2.75044 1.01024,-1.091 2.23227,-1.93019 3.51612,-2.67316 1.56377,-0.92517 3.2216,-1.5747 5.07569,-1.45806 3.04252,0 3.04252,2.86852 0,2.86852 z"
       inkscape:connector-curvature="0" />
    <path
       style="fill:#00ff00;fill-opacity:1;stroke:#00ff00;stroke-opacity:0"
       id="path5285"
       d="m 452.94886,568.49682 c -1.14071,0.0918 -2.17737,0.53897 -3.20543,1.0035 -1.60092,0.72423 -0.91096,0.94222 -1.19225,-2.2017 0.0718,0.001 0.14351,0.003 0.21527,0.004 3.03896,0.14736 2.90002,3.01252 -0.13894,2.86515 l 0,0 c -0.16114,-0.01 -0.32229,-0.0199 -0.48344,-0.0298 -0.73242,-2.96189 -1.32632,-2.44584 0.41923,-3.25229 1.27331,-0.57419 2.57385,-1.09663 3.97989,-1.22868 3.01195,-0.43028 3.41762,2.40942 0.40567,2.83969 z"
       inkscape:connector-curvature="0" />
    <path
       style="fill:#00ff00;fill-opacity:1;stroke:#00ff00;stroke-opacity:0"
       id="path5287"
       d="m 482.82973,563.36352 c 0.37507,3.18398 0.37678,6.38589 0.28769,9.58483 -0.14443,3.86581 -0.24282,7.73287 -0.30451,11.60081 -0.0233,1.67121 -0.0397,3.34255 -0.0435,5.01392 -2e-5,0.0706 0.0325,0.27451 -5e-5,0.21186 -0.85862,-1.6514 0.22893,-1.07244 -2.54632,-0.83644 0.87889,-2.91282 3.62513,-2.08419 2.74624,0.82863 l 0,0 c -0.0784,0.21221 -0.0294,0.54277 -0.2353,0.63665 -1.507,0.68731 -2.81439,1.09998 -2.83309,-0.84739 0.004,-1.6844 0.0203,-3.36875 0.0439,-5.05298 0.0619,-3.87945 0.16036,-7.75802 0.30526,-11.63533 0.0859,-3.05338 0.0891,-6.1092 -0.26667,-9.14876 -0.37737,-3.01903 2.469,-3.37483 2.84638,-0.3558 z"
       inkscape:connector-curvature="0" />
    <path
       style="fill:#00ff00;fill-opacity:1;stroke:#00ff00;stroke-opacity:0"
       id="path5289"
       d="m 474.22225,575.81524 c 2.90148,-1.48678 6.03413,-2.42116 9.16267,-3.29302 1.22428,-0.33536 2.47059,-0.57734 3.70558,-0.86727 0.17014,-0.0399 0.3403,-0.0804 0.5083,-0.12859 0.0289,-0.008 0.0719,-0.0691 0.0806,-0.0403 0.27797,0.91647 0.49899,1.84926 0.74848,2.7739 -0.10797,0.0331 -0.21594,0.0663 -0.32391,0.0994 -0.009,0.0148 -0.0171,0.0297 -0.0257,0.0445 -2.6833,1.43416 -4.03545,-1.09569 -1.35214,-2.52985 l 0,0 c 0.61792,-0.2951 0.34996,-0.20071 0.78489,-0.33213 0.3936,0.87603 0.91746,1.7045 1.18078,2.62808 0.009,0.0316 -0.40662,0.15079 -0.97321,0.28391 -1.18782,0.27907 -2.38673,0.51103 -3.56472,0.8319 -2.90154,0.80615 -5.80689,1.66541 -8.50849,3.02007 -2.64165,1.50951 -4.06484,-0.98106 -1.42318,-2.49058 z"
       inkscape:connector-curvature="0" />
    <path
       style="fill:#00ff00;fill-opacity:1;stroke:#00ff00;stroke-opacity:0"
       id="path5291"
       d="m 499.35515,581.58063 c -0.59684,-0.94697 -1.26978,-1.91986 -2.26109,-2.48358 -0.89906,-0.39832 -1.79511,-0.25896 -2.68526,0.0676 -1.36674,0.58604 -2.04785,1.84785 -2.61801,3.14561 -0.71537,1.95309 -0.8898,4.03251 -0.64024,6.08656 0.19628,1.07574 0.63471,1.64119 1.73505,1.37791 1.9746,-0.7001 3.40972,-1.72115 4.44958,-3.55018 0.72102,-1.73458 0.90012,-3.59521 0.49849,-5.42345 -0.34989,-1.33446 -0.78571,-1.17958 2.23117,-0.66303 0.11801,0.0202 -0.019,0.23871 -0.0261,0.35824 -0.0143,0.24311 -0.0252,0.4864 -0.0378,0.72961 -0.0734,1.96177 0.1749,3.92156 0.52343,5.84831 0.20568,1.08523 0.83964,1.82978 1.64062,2.52796 0.11399,0.0253 0.54676,0.48078 0.64207,0.32645 2.94324,0.77091 2.21643,3.54582 -0.72681,2.77492 l 0,0 c -0.68469,-0.23034 -1.25991,-0.46583 -1.81233,-0.94973 -1.27646,-1.13483 -2.23669,-2.45347 -2.56652,-4.17039 -0.38657,-2.14871 -0.65363,-4.33424 -0.56429,-6.52146 10e-4,-0.0184 0.0757,-1.7195 0.19088,-1.78325 2.78636,-1.54185 2.81552,-0.94455 3.31409,0.93854 0.51005,2.5522 0.26399,5.11807 -0.85315,7.49295 -0.27235,0.43251 -0.5053,0.8925 -0.81705,1.29752 -1.45255,1.88713 -3.63685,3.04464 -5.90119,3.62953 -0.44424,0.004 -0.89301,0.0762 -1.33273,0.0128 -2.05795,-0.29661 -3.10779,-2.05434 -3.43807,-3.93303 -0.27153,-2.57225 -0.0737,-5.15923 0.87707,-7.58863 0.93786,-2.03169 2.1417,-3.84238 4.31879,-4.68314 1.73207,-0.5512 3.46263,-0.66796 5.11682,0.21816 1.40347,0.9138 2.49129,2.17089 3.30819,3.63432 1.36066,2.72132 -1.20503,4.00416 -2.56568,1.28285 z"
       inkscape:connector-curvature="0" />
    <path
       style="fill:#00ff00;fill-opacity:1;stroke:#00ff00;stroke-opacity:0"
       id="path5293"
       d="m 510.80065,560.80711 c -0.34964,2.83916 -0.11786,5.70519 -0.14927,8.55763 -0.12447,4.31933 -0.22658,8.63895 -0.28842,12.95964 0.0173,2.37406 -0.20863,4.7618 0.18594,7.11533 0.0766,0.68059 0.33031,0.46635 -0.023,0.12422 -0.22066,-0.21369 -0.50986,-0.34272 -0.7648,-0.51408 3.0381,0.16411 2.88338,3.02845 -0.15472,2.86434 l 0,0 c -1.48492,-0.61674 -1.61548,-0.54306 -1.88819,-2.01025 -0.40673,-2.52391 -0.23742,-5.07452 -0.22347,-7.62061 0.0618,-4.31796 0.16325,-8.63487 0.28832,-12.95145 0.0355,-2.97679 -0.21138,-5.96848 0.17791,-8.93044 0.43027,-3.01195 3.26997,-2.60628 2.83969,0.40567 z"
       inkscape:connector-curvature="0" />
    <path
       style="fill:#00ff00;fill-opacity:1;stroke:#00ff00;stroke-opacity:0"
       id="path5297"
       d="m 519.73071,572.5731 c -2.76423,1.18112 -5.35412,2.73461 -7.82164,4.44163 -1.5834,1.08488 -2.99211,2.36174 -4.21931,3.83204 -0.46461,0.65894 0.3759,-0.47641 0.0531,-1.22535 -0.17791,-0.4127 -0.76787,-0.47485 -1.10653,-0.77027 -0.0428,-0.0373 0.10641,-0.0399 0.16129,-0.0543 0.76004,-0.19912 0.1616,-0.003 0.85358,-0.24882 1.05821,-0.47558 2.1829,-0.70362 3.32837,-0.83359 1.129,-0.10057 2.24655,-0.17544 3.34946,0.11977 1.30384,0.55688 1.61682,1.86846 2.16504,3.03855 0.87641,1.75217 1.92728,3.40838 2.94917,5.07839 0.76467,1.32795 1.50475,2.66858 2.40851,3.90828 0.21563,0.27797 0.42241,0.56537 0.66248,0.8233 2.09748,2.20398 0.0195,4.1815 -2.07793,1.97752 l 0,0 c -0.32778,-0.3489 -0.61531,-0.73326 -0.90459,-1.11387 -0.94567,-1.30345 -1.74074,-2.69942 -2.53549,-4.0984 -1.07816,-1.76321 -2.18425,-3.51361 -3.10359,-5.36655 -0.21564,-0.46724 -0.39329,-0.94915 -0.60659,-1.41591 -0.0343,-0.0751 -0.1668,-0.15292 -0.11659,-0.21841 0.0783,-0.10213 0.24095,0.28309 0.35914,0.14168 -0.70206,-0.25708 -1.50395,-0.008 -2.23394,-0.0232 -0.94362,0.10064 -1.85516,0.30009 -2.7233,0.69936 -0.33924,0.11135 -1.37006,0.55348 -1.74609,0.44846 -1.53441,-0.42856 -2.60394,-1.01632 -1.33493,-2.70806 1.39698,-1.6644 2.99391,-3.12088 4.79009,-4.35196 2.66485,-1.8331 5.4538,-3.5126 8.44313,-4.76621 2.84881,-1.0683 3.85601,1.61758 1.00721,2.68588 z"
       inkscape:connector-curvature="0" />
    <path
       style="fill:#00ff00;fill-opacity:1;stroke:#00ff00;stroke-opacity:0"
       id="path5299"
       d="m 527.57829,581.58336 c 1.12768,-0.54385 2.02633,-1.37412 2.84553,-2.30005 0.16209,-0.52152 0.0343,-0.43154 -0.1885,-0.8028 -0.39642,-0.20466 -0.90459,-0.21453 -1.34077,-0.17778 -1.04302,0.23624 -1.88726,0.88617 -2.55967,1.69125 -0.81777,1.12345 -0.9332,2.51561 -1.04891,3.856 -0.0709,1.53 0.7189,2.6143 1.78522,3.61242 1.45056,1.2876 3.28686,1.73845 5.15252,2.02656 1.61019,0.28486 3.15347,-0.11845 4.62249,-0.76565 0.67588,-0.33739 1.26304,-0.76554 1.65921,-1.41294 0.0993,-0.17792 -0.0304,0.0231 -0.0479,0.0484 0.46951,-3.00609 3.30367,-2.56343 2.83416,0.44265 l 0,0 c -0.0702,0.37495 -0.15722,0.75063 -0.37963,1.06991 -0.73469,1.1061 -1.73217,1.92771 -2.93978,2.49026 -1.97687,0.82514 -4.04571,1.34465 -6.19725,0.96062 -2.45042,-0.39602 -4.8217,-1.08015 -6.69887,-2.79865 -1.72666,-1.70937 -2.75913,-3.4137 -2.64755,-5.92622 0.17675,-1.9589 0.47979,-3.90993 1.74957,-5.49462 1.24658,-1.38136 2.74475,-2.44259 4.64189,-2.6675 1.54504,-0.002 3.00799,0.30211 3.93031,1.66587 0.78555,1.4912 0.77202,2.6719 -0.18219,4.08755 -1.06517,1.19463 -2.25445,2.2518 -3.70705,2.96044 -2.72131,1.36066 -4.00416,-1.20503 -1.28284,-2.56568 z"
       inkscape:connector-curvature="0" />
    <path
       style="fill:#00ff00;fill-opacity:1;stroke:#00ff00;stroke-opacity:0"
       id="path5301"
       d="m 556.51788,571.31114 c -2.23514,0.0172 -4.30641,0.59473 -6.34804,1.45587 -1.50755,0.83456 -2.97194,1.8394 -3.85398,3.3512 -0.42036,1.01185 -0.1995,0.58587 0.59847,1.04093 1.78092,0.74696 3.62911,1.3077 5.39548,2.08914 1.14948,0.54233 2.53492,1.07496 3.22594,2.22736 0.15394,0.25673 0.24518,0.54619 0.36777,0.81929 0.55633,2.70591 -1.61116,4.54682 -3.49996,6.09049 -2.16131,1.74839 -4.60419,3.09384 -7.20725,4.05129 -0.28147,0.0884 -0.56293,0.17676 -0.8444,0.26513 -2.90443,0.90622 -3.75882,-1.83211 -0.85439,-2.73832 l 0,0 c 0.23876,-0.0739 0.47752,-0.14788 0.71628,-0.22182 2.31152,-0.83365 4.4697,-2.04551 6.38681,-3.58737 0.96132,-0.76587 2.1775,-1.63851 2.62273,-2.83713 0.004,-0.81978 -1.58345,-1.11116 -2.08005,-1.4483 -1.88438,-0.84494 -3.89197,-1.37548 -5.75231,-2.27916 -2.10665,-1.38389 -2.67238,-2.65152 -1.51857,-4.97418 1.26347,-1.99259 3.08804,-3.43624 5.19087,-4.49504 2.39441,-0.9937 4.84156,-1.66219 7.4546,-1.67791 3.04253,0 3.04253,2.86853 0,2.86853 z"
       inkscape:connector-curvature="0" />
    <path
       style="fill:#00ff00;fill-opacity:1;stroke:#00ff00;stroke-opacity:0"
       id="path5303"
       d="m 568.06461,574.1027 c -1.49071,1.35106 -3.23339,2.41472 -5.03714,3.29488 -2.11916,0.80809 -3.31777,0.26242 -3.85345,-1.98409 -0.12778,-1.77995 0.4264,-2.84849 2.01979,-3.66962 1.83161,-0.51234 3.40536,0.32734 4.81574,1.42328 0.88989,0.8891 1.72855,2.05108 1.33391,3.3925 -0.0862,0.29306 -0.27512,0.54549 -0.41269,0.81824 -0.60063,0.8965 -1.48796,1.43042 -2.48562,1.77626 -1.2015,0.23879 -2.09065,-0.39032 -2.72679,-1.33095 -0.068,-0.36592 -0.13602,-0.73184 -0.20403,-1.09776 0.45911,-3.00769 3.29478,-2.57483 2.83568,0.43285 l 0,0 c -0.0777,-0.30274 -0.15531,-0.60548 -0.23297,-0.90823 0.20801,0.34886 -0.36774,-0.0349 -0.58966,0.18634 0.3924,-0.12548 0.76153,-0.27031 1.00198,-0.62746 0.007,0.57985 0.32613,0.27723 -0.31238,-0.40235 -0.54785,-0.46323 -1.1583,-0.81731 -1.8288,-1.05467 -0.39974,0.0648 -0.24819,-0.0966 -0.4053,0.47957 0.008,0.0753 0.0446,0.15271 0.0249,0.22582 -0.0424,0.15693 -0.29874,-0.14179 -0.46006,-0.1619 -0.13697,-0.0171 -0.27379,0.0354 -0.4106,0.0537 -0.21635,0.0289 1.06145,-0.12675 0.64103,-0.13368 1.52169,-0.72832 2.98622,-1.63093 4.25813,-2.74107 2.15139,-2.15139 4.17974,-0.12304 2.02835,2.02835 z"
       inkscape:connector-curvature="0" />
    <path
       style="fill:#00ff00;fill-opacity:1;stroke:#00ff00;stroke-opacity:0"
       id="path5305"
       d="m 564.81189,587.56838 c -0.0662,1.04453 0.0793,2.58133 -0.73378,3.41539 -0.24402,0.25033 -0.55533,0.42481 -0.83299,0.63721 -0.39514,0.0131 -0.80278,0.13868 -1.18541,0.0392 -1.3094,-0.34047 -1.64699,-1.90718 -1.58332,-3.02695 0.34095,-1.43014 1.61104,-2.35594 3.10472,-2.01594 0.27532,0.0627 0.52374,0.21124 0.78561,0.31685 1.10577,0.59187 1.85448,1.53497 2.36976,2.65523 0.68755,1.6927 -0.25361,2.72653 -1.95221,2.99931 -1.83703,0.16985 -3.49094,-0.52922 -4.99161,-1.517 -1.4073,-1.06262 -2.24868,-2.85164 -1.05336,-4.44352 0.21768,-0.2899 0.52241,-0.5028 0.78361,-0.7542 1.39532,-1.07492 2.97173,-1.62147 4.72419,-1.47061 1.4578,0.27503 2.2131,1.36631 2.63893,2.6918 0.15244,0.90102 -0.0105,1.78122 -0.33391,2.62186 -0.0871,0.19797 -0.0427,0.10414 -0.13193,0.28205 -1.40456,2.69892 -3.94913,1.37468 -2.54456,-1.32423 l 0,0 c 0.003,-0.003 -0.0259,0.0646 0.008,-0.01 0.10153,-0.2405 0.12216,-0.5563 0.25301,-0.75301 -0.0523,-0.228 -0.0666,-0.55876 -0.26604,-0.66526 -0.83481,-0.31993 -1.83079,0.42934 -2.50018,0.82151 -0.42654,0.14487 -0.11825,0.0438 -0.42598,-0.10256 -0.22182,-0.10549 0.46828,1.18304 0.44847,0.72484 0.90774,0.6294 1.91948,1.12586 3.05546,1.04912 0.33664,0.0357 0.0677,-0.0282 -0.24315,0.39694 -0.19216,0.26284 -0.0795,0.54958 -0.0169,0.81927 0.0158,0.068 -0.0472,-0.13142 -0.0708,-0.19712 -0.21422,-0.51035 -0.51271,-0.94974 -0.99861,-1.24211 -0.0353,-0.13692 0.41036,-0.37356 0.21376,-0.61609 -0.01,0.027 10e-6,0.0815 -0.0286,0.081 -0.0346,-6e-4 -0.0606,-0.11714 -0.063,-0.0826 -0.004,0.0628 0.0739,0.11995 0.0562,0.18042 -0.004,0.0154 -1.196,-0.59783 -1.27527,-0.0532 -0.98848,1.13268 -0.24411,0.33313 -0.22425,0.25711 0.14459,-0.55335 0.15129,-1.14921 0.14583,-1.71513 0,-3.04252 2.86852,-3.04252 2.86852,0 z"
       inkscape:connector-curvature="0" />
    <path
       style="fill:#00ff00;fill-opacity:1;stroke:#00ff00;stroke-opacity:0"
       id="path5882"
       d="m 110.66501,745.77557 c -0.95584,-0.73486 -2.12383,-0.96665 -3.29149,-1.11825 -1.28483,-0.19897 -2.54796,-0.0222 -3.82192,0.144 -1.22951,0.18409 -2.47324,0.17488 -3.686314,0.44959 -0.855347,0.16196 -1.686041,0.43557 -2.49613,0.75288 -1.042989,0.48874 -2.013856,1.10557 -2.987417,1.71754 -1.023882,0.54287 -1.991654,1.16327 -2.897078,1.88465 -0.751121,0.66727 -1.527301,1.32466 -2.168127,2.1016 -0.798927,0.83586 -1.636834,1.62048 -2.294187,2.57734 -0.34548,0.74052 -0.902126,1.39086 -1.157119,2.17433 -0.167547,0.73392 0.02336,-0.23812 -0.158927,-0.51376 -0.104728,-0.15836 -0.297356,-0.24974 -0.389112,-0.41595 -0.03937,-0.0713 0.146116,0.0721 0.219174,0.10811 1.047882,0.26922 2.084693,0.5482 3.155214,0.7172 1.557661,0.12932 3.092528,0.42723 4.642689,0.61683 1.482597,0.16306 2.97537,0.19479 4.465466,0.21644 1.351784,0.12566 2.689768,0.34959 4.004668,0.6841 1.33128,0.24885 2.65905,0.52704 3.96035,0.90506 1.41582,0.29872 2.5326,1.17249 3.65785,2.02255 1.0322,0.7861 2.07609,1.5466 3.02042,2.43992 0.85085,0.84845 1.52835,1.82858 2.11346,2.87188 0.4568,0.85554 0.83315,1.76131 1.16548,2.67336 0.34693,0.93701 0.40248,1.9348 0.44298,2.92257 0.0512,0.95239 0.0465,1.87797 -0.19855,2.80352 -0.54267,1.37964 -1.7194,2.19433 -2.97355,2.87607 -1.65394,0.74594 -3.40094,1.155 -5.18975,1.40158 -1.65864,0.32439 -3.32885,0.5504 -5.01335,0.67938 -1.50378,-0.006 -2.979668,0.26329 -4.467571,0.43939 -1.667329,0.34939 -3.350803,0.57016 -5.048782,0.69234 -1.850422,0.35091 -3.724842,0.304 -5.596519,0.24223 -1.812483,-0.152 -3.551583,-0.7514 -5.223061,-1.44061 -0.897084,-0.43299 -2.095446,-0.83586 -2.533692,-1.83582 -0.108761,-0.24816 -0.128249,-0.52651 -0.192374,-0.78976 0.266378,-1.12054 0.04061,-0.66974 0.54937,-1.40923 1.907234,-2.37053 4.142194,-0.57237 2.234961,1.79816 l 0,0 c 0.100595,-0.28536 0.04076,-0.0795 0.07326,-0.63908 -0.14476,-0.32594 -0.09098,-0.32506 -0.339504,-0.52075 -0.04624,-0.0364 0.08016,0.0864 0.123651,0.12605 0.335203,0.30571 0.796147,0.4054 1.185558,0.62171 1.348225,0.56631 2.757714,1.05945 4.216665,1.22238 1.774373,0.0588 3.543915,0.10276 5.297851,-0.23655 1.654602,-0.11655 3.290225,-0.34977 4.916254,-0.6798 1.526923,-0.17983 3.043503,-0.45356 4.586353,-0.45092 1.62829,-0.12297 3.24026,-0.3516 4.84391,-0.66141 1.45495,-0.19526 2.87079,-0.51612 4.22818,-1.09103 0.5759,-0.29727 1.11416,-0.63488 1.55479,-1.09942 0.17997,-0.62694 0.10988,-1.27543 0.0997,-1.93271 -0.0277,-0.69764 -0.0386,-1.40933 -0.2783,-2.0738 -0.26438,-0.76556 -0.59277,-1.51828 -0.96599,-2.23487 -0.4472,-0.79764 -0.9463,-1.55452 -1.59753,-2.20511 -0.84849,-0.83227 -1.83488,-1.48701 -2.76455,-2.22171 -0.85708,-0.64889 -1.65262,-1.34612 -2.74051,-1.55958 -1.26281,-0.38175 -2.56445,-0.61555 -3.85577,-0.8763 -1.09811,-0.28031 -2.211898,-0.46346 -3.338267,-0.59557 -1.593263,-0.0234 -3.189258,-0.06 -4.774175,-0.23765 -1.585173,-0.19641 -3.15528,-0.49467 -4.74784,-0.63176 -1.347449,-0.22022 -2.678487,-0.54118 -3.971547,-0.97825 -1.157079,-0.57391 -1.546293,-1.56514 -1.084639,-2.7574 0.391648,-0.99313 0.965728,-1.89042 1.494689,-2.81415 0.722721,-1.0152 1.565562,-1.91221 2.453638,-2.78389 0.780505,-0.90575 1.660405,-1.71999 2.57203,-2.49301 0.989666,-0.78476 2.037567,-1.47893 3.156535,-2.06833 1.132434,-0.71014 2.264031,-1.42536 3.489458,-1.96795 0.943558,-0.35402 1.902022,-0.68653 2.89454,-0.87269 1.300378,-0.28684 2.621368,-0.32467 3.939958,-0.49435 1.52239,-0.19858 3.0417,-0.37505 4.57456,-0.14263 1.59593,0.21956 3.18293,0.59389 4.50114,1.57453 2.53153,1.68769 0.94036,4.07445 -1.59117,2.38676 z"
       inkscape:connector-curvature="0" />
    <path
       style="fill:#00ff00;fill-opacity:1;stroke:#00ff00;stroke-opacity:0"
       id="path5884"
       d="m 232.65094,764.26822 c 1.58333,0.62722 3.21637,1.0509 4.89582,1.31313 1.37136,0.26059 2.72293,0.16192 4.09096,-0.0216 1.18077,-0.16379 2.36479,-0.21622 3.53401,-0.44932 1.27772,-0.12205 2.38898,-0.72113 3.48861,-1.33643 1.01479,-0.68573 2.0534,-1.36102 2.96327,-2.18536 0.74818,-0.69504 1.48978,-1.39469 2.10843,-2.21128 0.55211,-0.82144 0.91519,-1.69963 1.11338,-2.66441 0.18082,-0.97708 0.19023,-1.9455 0.0324,-2.92098 -0.27527,-0.94968 -0.60967,-1.88207 -1.19068,-2.68805 -0.44205,-0.75017 -1.09879,-1.32541 -1.72875,-1.91219 -0.53706,-0.40786 -1.16848,-0.65794 -1.79296,-0.90131 -0.82404,-0.29781 -1.66493,-0.13504 -2.50577,-0.0234 -1.09499,0.20219 -2.06407,0.71583 -3.02392,1.25587 -1.37819,0.7645 -2.77754,1.48313 -4.09788,2.34672 -1.43325,0.96466 -2.62403,2.19252 -3.76276,3.47681 -0.8984,1.19638 -1.48289,2.56277 -2.04064,3.93865 -0.63835,1.64983 -1.07473,3.33959 -1.3155,5.08983 -0.34596,1.86504 -0.56373,3.7468 -0.69262,5.63811 -0.0108,1.27237 -0.20674,2.57026 -0.036,3.8372 0.0785,1.01282 0.62374,1.7596 1.30872,2.459 1.06658,0.98335 2.3357,1.64044 3.64132,2.23995 1.59209,0.62363 3.29905,0.90671 5.00434,0.88362 1.97662,-0.17924 3.8354,-0.8322 5.66264,-1.56643 2.1293,-0.93239 4.23738,-1.91331 6.38,-2.8153 1.62641,-0.68525 3.25253,-1.35728 4.82133,-2.16945 1.07247,-0.66482 2.20974,-1.2226 3.22525,-1.97445 0.24314,-0.0491 0.84313,-0.91861 0.35538,-0.24913 -0.0437,0.12688 -0.0102,0.26173 0.0157,0.38977 -0.77719,-2.94159 1.99617,-3.67433 2.77335,-0.73274 l 0,0 c 0.0758,0.35268 0.0766,0.70588 -0.0112,1.05844 -0.23699,0.8091 -0.7502,1.3742 -1.43566,1.84594 -1.14224,0.83325 -2.3965,1.48536 -3.60768,2.21145 -1.63722,0.84206 -3.32789,1.55332 -5.0244,2.26435 -2.15826,0.9068 -4.27864,1.90024 -6.42516,2.83385 -2.16335,0.8646 -4.37421,1.614 -6.71847,1.7722 -2.12449,-0.007 -4.24121,-0.3268 -6.21495,-1.14644 -1.63088,-0.75249 -3.20434,-1.60725 -4.51342,-2.86149 -1.1029,-1.16891 -1.93821,-2.48399 -2.08799,-4.12556 -0.14216,-1.44627 -0.0399,-2.9013 0.025,-4.35077 0.13472,-1.95835 0.35524,-3.908 0.71355,-5.83929 0.28091,-1.98214 0.77033,-3.90289 1.49824,-5.77092 0.68073,-1.67712 1.41983,-3.33332 2.553,-4.76407 1.30924,-1.47494 2.69399,-2.87304 4.34244,-3.9764 1.37754,-0.8948 2.82619,-1.65722 4.2645,-2.44742 1.27831,-0.71061 2.58679,-1.36116 4.04752,-1.59569 1.32302,-0.17423 2.6509,-0.30145 3.92811,0.1964 0.95856,0.37719 1.91276,0.7949 2.70178,1.47326 0.77967,0.72642 1.57243,1.45747 2.13088,2.37674 0.79867,1.17908 1.34389,2.4871 1.66693,3.87643 0.20417,1.32577 0.19427,2.6484 -0.0617,3.97033 -0.3058,1.37885 -0.82883,2.65765 -1.64944,3.81696 -0.74322,0.94645 -1.58476,1.79555 -2.4752,2.60305 -1.08178,0.94362 -2.26136,1.77327 -3.47075,2.54466 -1.35911,0.75183 -2.75655,1.4703 -4.32494,1.6432 -1.2293,0.24241 -2.46982,0.3197 -3.71146,0.47874 -1.64142,0.21893 -3.27539,0.31066 -4.91814,0.0119 -1.79191,-0.28512 -3.54797,-0.71303 -5.23694,-1.38847 -2.92546,-0.83585 -2.13742,-3.594 0.78805,-2.75815 z"
       inkscape:connector-curvature="0" />
    <path
       style="fill:#00ff00;fill-opacity:1;stroke:#00ff00;stroke-opacity:0"
       id="path5890"
       d="m 89.018586,853.01379 c -0.557158,1.94699 -0.709673,3.97116 -0.828418,5.98286 -0.138204,3.26525 -0.128969,6.53459 -0.134177,9.80212 -0.0015,3.26865 0.0027,6.53731 0.0051,9.80596 0.09631,1.9412 0.327666,3.87178 0.468439,5.8098 0.09491,1.37498 0.10303,2.7537 0.11017,4.13131 0.192555,1.26138 0.364002,2.52205 0.464695,3.79461 0.08073,1.1183 0.100751,2.23928 0.109028,3.36002 0.0029,0.5014 0.0015,1.0028 -6.85e-4,1.50419 -1.71e-4,0.0566 -3.43e-4,0.11324 -5.14e-4,0.16987 -0.0092,3.04251 -2.877745,3.0338 -2.868509,-0.009 l 0,0 c 1.76e-4,-0.0579 3.53e-4,-0.11577 5.29e-4,-0.17365 0.0021,-0.49021 0.0035,-0.98043 7.35e-4,-1.47064 -0.0077,-1.05276 -0.02536,-2.10578 -0.100287,-3.15632 -0.104766,-1.34303 -0.321975,-2.66728 -0.473475,-4.00457 -0.0067,-1.31335 -0.01321,-2.62781 -0.102703,-3.93873 -0.145104,-2.00626 -0.391447,-4.00448 -0.475944,-6.01501 -0.0025,-3.2709 -0.0067,-6.54181 -0.0051,-9.81271 0.0053,-3.32283 -0.0039,-6.64754 0.139241,-9.96798 0.133206,-2.22066 0.314791,-4.45254 0.933719,-6.60046 0.835847,-2.92546 3.593999,-2.13742 2.758153,0.78804 z"
       inkscape:connector-curvature="0" />
    <path
       style="fill:#00ff00;fill-opacity:1;stroke:#00ff00;stroke-opacity:0"
       id="path5892"
       d="m 87.108637,858.14945 c 0.674259,-2.33969 2.499496,-3.87819 4.472122,-5.14204 1.96852,-1.11761 4.133586,-1.88274 6.366178,-2.24292 1.672153,-0.30809 3.179773,0.28042 4.672993,0.94854 1.42197,0.63967 2.45016,1.64324 3.14689,3.02112 0.66604,1.5404 0.56504,3.15851 0.39298,4.7811 -0.25673,1.92271 -0.90335,3.7009 -1.84836,5.38395 -1.57722,2.55257 -3.87733,4.46042 -6.2472,6.23905 -2.395117,1.53218 -4.969926,2.74225 -7.663698,3.64 -0.962386,0.27843 -1.941709,0.52576 -2.941829,0.61736 -1.494575,0.35339 -1.506996,-2.82733 0.148274,-2.91406 0.392946,0.007 0.78582,0.015 1.178925,0.0179 2.142741,0.20353 4.064136,1.25549 5.950316,2.21364 3.070727,1.72476 6.083542,3.54585 9.063082,5.42287 3.2031,2.09929 6.58139,3.90959 9.93015,5.76126 1.94859,1.04468 3.75163,2.30192 5.40833,3.75832 0.56577,0.55228 1.07598,1.1664 1.44875,1.86578 -2.89486,0.35504 -2.66797,1.03285 -2.65844,-0.39531 0.0257,-3.04242 2.89411,-3.0182 2.86842,0.0242 l 0,0 c -0.0169,1.70925 0.12536,1.11224 -2.75692,1.69076 -0.20427,-0.3851 -0.49787,-0.71583 -0.79574,-1.03104 -1.50106,-1.3196 -3.13363,-2.4591 -4.90252,-3.40243 -3.39642,-1.87823 -6.82177,-3.71618 -10.0711,-5.84454 -2.905395,-1.83062 -5.843556,-3.6057 -8.834766,-5.29323 -1.49466,-0.76171 -3.000371,-1.60598 -4.671053,-1.90185 -0.311851,-0.002 -0.762535,-0.002 -1.031779,-0.0206 -1.18126,0.0681 0.52547,-2.97809 -0.520418,-2.80963 0.77725,-0.0579 1.534453,-0.28579 2.284078,-0.48172 2.403955,-0.79554 4.695792,-1.87556 6.848396,-3.21371 2.05887,-1.53839 4.079692,-3.1685 5.475512,-5.3651 0.77383,-1.32583 1.26146,-2.74281 1.48715,-4.26524 0.1165,-1.09232 0.27065,-2.18242 -0.1292,-3.24194 -0.32481,-0.78313 -0.96691,-1.27888 -1.73008,-1.6387 -0.98741,-0.44208 -1.942545,-0.94048 -3.058107,-0.73269 -1.850549,0.27702 -3.642091,0.94025 -5.281278,1.83654 -1.383639,0.84976 -2.755398,1.8812 -3.241906,3.50236 -0.835846,2.92547 -3.593998,2.13742 -2.758152,-0.78804 z"
       inkscape:connector-curvature="0" />
    <path
       style="fill:#00ff00;fill-opacity:1;stroke:#00ff00;stroke-opacity:0"
       id="path5894"
       d="m 130.2596,853.56532 c -2.36652,2.31646 -4.93673,4.41335 -7.3955,6.63149 -3.8842,3.40009 -7.50854,7.08287 -11.1583,10.72956 -4.51884,4.67611 -9.00979,9.37863 -13.45567,14.12412 -3.919461,4.29136 -8.181331,8.24788 -12.250274,12.39279 -1.677219,1.7692 -3.409151,3.49661 -4.929102,5.40615 -0.313276,0.48319 -0.760288,0.91773 -0.916621,1.48586 -0.192278,0.69937 -0.53973,1.34182 -0.896565,1.96791 -0.455651,0.81762 -0.968008,1.59867 -1.484564,2.37916 -0.610512,0.93826 -1.269931,1.84142 -1.895148,2.76895 -0.436752,0.57826 -0.736155,1.23573 -1.100222,1.85762 -0.343633,0.55803 -0.776069,1.05478 -1.215513,1.53861 -0.08392,0.0919 -0.169865,0.18188 -0.258434,0.26928 -2.174465,2.12807 -4.180826,0.078 -2.006362,-2.0501 l 0,0 c 0.04811,-0.0492 0.09709,-0.0976 0.142672,-0.14921 0.312008,-0.34248 0.624958,-0.6902 0.875724,-1.08079 0.408956,-0.65641 0.710012,-1.38107 1.188812,-1.99654 0.624267,-0.91465 1.267676,-1.81539 1.876623,-2.74133 0.482198,-0.72813 0.96565,-1.45378 1.386201,-2.21947 0.276164,-0.48174 0.551026,-0.96696 0.687254,-1.51414 0.326453,-0.84862 0.81396,-1.59645 1.377225,-2.30904 1.590984,-1.97652 3.366041,-3.79301 5.121248,-5.62268 4.054259,-4.12793 8.29774,-8.07101 12.203691,-12.34423 4.467465,-4.7685 8.980065,-9.494 13.521535,-14.19213 3.6843,-3.68117 7.34391,-7.39767 11.26446,-10.83036 2.4225,-2.18491 4.95317,-4.2522 7.28848,-6.52983 2.15139,-2.15139 4.17974,-0.12304 2.02835,2.02835 z"
       inkscape:connector-curvature="0" />
    <path
       style="fill:#00ff00;fill-opacity:1;stroke:#00ff00;stroke-opacity:0"
       id="path5896"
       d="m 163.71518,852.91541 c -0.28935,2.77597 -0.3683,5.56745 -0.43214,8.35587 -0.11503,3.48685 -0.0724,6.9678 0.25425,10.4415 0.37932,3.16693 0.78924,6.33257 1.21578,9.49415 0.24744,2.25248 0.6997,4.4724 1.03259,6.7121 0.19863,1.35626 0.27059,2.72548 0.30178,4.09439 -0.019,0.74659 0.21306,1.47154 0.38232,2.19323 -0.094,-0.20881 0.14817,0.49074 0.0896,0.376 -0.0653,-0.12796 -0.023,-0.43775 -0.1615,-0.39964 -0.92584,0.25468 -1.7554,0.77893 -2.63309,1.16839 -1.5042,-2.64468 0.98924,-4.06285 2.49343,-1.41816 l 0,0 c -2.20967,1.74993 -2.14647,2.64597 -2.58117,0.92834 -0.21452,-0.91486 -0.47937,-1.83603 -0.45737,-2.7836 -0.0278,-1.24962 -0.0909,-2.49971 -0.27144,-3.73795 -0.33359,-2.25246 -0.78981,-4.48491 -1.03797,-6.75017 -0.43044,-3.20048 -0.84784,-6.40448 -1.22905,-9.61055 -0.33206,-3.58445 -0.38748,-7.17596 -0.2659,-10.77381 0.066,-2.87226 0.14913,-5.74759 0.44893,-8.60687 0.33599,-3.02392 3.18696,-2.70714 2.85097,0.31678 z"
       inkscape:connector-curvature="0" />
    <path
       style="fill:#00ff00;fill-opacity:1;stroke:#00ff00;stroke-opacity:0"
       id="path5898"
       d="m 143.51243,852.91789 c 2.99857,-0.90163 6.05706,-1.55754 9.14488,-2.06283 3.45116,-0.49241 6.90747,-0.9051 10.38692,-1.12653 2.7878,-0.1495 5.57662,-0.10796 8.35944,-0.33865 2.029,-0.22893 4.00822,-0.7011 5.95869,-1.28956 0.74154,-0.23175 1.48424,-0.46127 2.21747,-0.71851 0.19411,-0.0739 0.23648,-0.0597 0.55127,-0.12296 3.03242,-0.24779 3.26604,2.61121 0.23362,2.85899 l 0,0 c 0.60845,-0.16217 0.28885,-0.0832 0.16371,-0.0289 -0.77329,0.27069 -1.55581,0.5143 -2.33798,0.75776 -2.14324,0.64585 -4.32081,1.15779 -6.55061,1.40196 -2.80131,0.23065 -5.60759,0.20063 -8.41401,0.34263 -3.38571,0.21405 -6.74828,0.61822 -10.10666,1.09486 -2.97834,0.48431 -5.92707,1.12027 -8.8187,1.98988 -2.92546,0.83584 -3.7135,-1.92231 -0.78804,-2.75815 z"
       inkscape:connector-curvature="0" />
    <path
       style="fill:#00ff00;fill-opacity:1;stroke:#00ff00;stroke-opacity:0"
       id="path5900"
       d="m 207.19186,841.61577 c -1.88146,0.81582 -3.46433,2.12797 -5.0723,3.37012 -2.199,1.73869 -4.38129,3.50231 -6.66624,5.12739 -2.32351,1.57466 -4.38668,3.44872 -6.45341,5.33396 -2.51891,2.16674 -4.79077,4.5695 -6.98608,7.05601 -2.85868,3.35097 -5.78291,6.63094 -8.87839,9.76501 -3.98594,4.03089 -8.27868,7.74362 -12.57969,11.43108 -4.80149,3.99203 -9.65328,7.92133 -14.45274,11.916 -3.46451,2.96547 -6.78805,6.08846 -10.11122,9.21002 -2.30515,2.10664 -4.38512,4.43932 -6.58438,6.65131 -1.18334,1.16132 -2.41124,2.27567 -3.6222,3.40779 -0.28925,0.2712 -0.57847,0.54245 -0.86551,0.81598 -1.29354,-1.07109 -2.35581,-1.84057 -1.31539,-2.53836 2.52686,-1.69468 4.12462,0.68767 1.59776,2.38235 l 0,0 c -0.99242,0.66557 -2.9876,-0.38908 -2.26467,-1.91736 0.2948,-0.2809 0.59172,-0.55957 0.88882,-0.83803 1.18591,-1.10867 2.38822,-2.2001 3.54825,-3.33613 2.22467,-2.23176 4.32135,-4.59334 6.6534,-6.71835 3.36502,-3.16075 6.73082,-6.32258 10.24009,-9.32399 4.78876,-3.98573 9.62924,-7.90682 14.42079,-11.889 4.24111,-3.63572 8.47508,-7.29538 12.40602,-11.26927 3.05854,-3.09537 5.94419,-6.33797 8.7688,-9.64769 2.26387,-2.56364 4.60873,-5.0401 7.20333,-7.27677 2.1532,-1.96356 4.30899,-3.90983 6.72607,-5.55372 2.25646,-1.59822 4.4012,-3.34795 6.57297,-5.05831 1.79968,-1.39024 3.5855,-2.83501 5.69596,-3.73662 2.79652,-1.19851 3.92649,1.43807 1.12996,2.63658 z"
       inkscape:connector-curvature="0" />
    <path
       style="fill:#00ff00;fill-opacity:1;stroke:#00ff00;stroke-opacity:0"
       id="path5902"
       d="m 583.38684,557.73485 c -0.74085,1.70609 -1.2271,3.5137 -1.73354,5.30047 -0.71534,2.34621 -1.09854,4.77415 -1.56935,7.17669 -0.4854,2.86568 -1.1254,5.7011 -1.5503,8.57685 -0.46433,3.03658 -0.89457,6.07995 -1.25663,9.13066 -0.28913,2.5113 -0.36741,5.0387 -0.40884,7.56402 0.0771,1.93028 -0.15305,3.84084 -0.36928,5.75359 -0.0729,0.65882 -0.14602,1.31764 -0.21323,1.97706 -0.10346,1.04045 0.0657,0.0985 -2.87172,-0.30303 -0.012,-3.0425 2.85648,-3.05383 2.8685,-0.0113 l 0,0 c -2.87896,0.1314 -2.95454,1.07255 -2.85051,0.0234 0.0683,-0.66987 0.14249,-1.33914 0.2166,-2.00839 0.206,-1.82183 0.43212,-3.63954 0.35151,-5.47856 0.0434,-2.62265 0.1271,-5.24732 0.42848,-7.85525 0.36616,-3.0781 0.79894,-6.14906 1.26763,-9.21299 0.43439,-2.91921 1.07588,-5.79921 1.57286,-8.70792 0.48643,-2.48013 0.88538,-4.98567 1.62462,-7.40756 0.55585,-1.9585 1.09173,-3.9396 1.92752,-5.80059 1.36066,-2.72132 3.92634,-1.43847 2.56568,1.28285 z"
       inkscape:connector-curvature="0" />
    <path
       style="fill:#00ff00;fill-opacity:1;stroke:#00ff00;stroke-opacity:0"
       id="path5904"
       d="m 597.7649,561.16926 c -0.90877,2.00008 -1.49863,4.13322 -1.96899,6.27404 -0.43725,2.48206 -0.83217,4.97133 -1.34713,7.4389 -0.71605,2.46508 -1.36866,4.94297 -1.96436,7.44079 -0.55222,2.04753 -1.04717,4.11113 -1.62123,6.15247 -0.38945,1.81701 -0.89976,3.59563 -1.49974,5.35429 -0.51246,1.50084 -1.07029,2.98586 -1.61457,4.47563 -0.36186,1.05651 -0.46121,2.16665 -0.74891,3.24266 -0.21102,0.68386 -0.30971,1.38812 -0.52685,2.06805 -0.16007,0.38879 -0.32986,0.77353 -0.50485,1.15581 -1.26675,2.76629 -3.87483,1.57199 -2.60808,-1.19429 l 0,0 c 0.15331,-0.33468 0.30195,-0.67155 0.44344,-1.0114 0.0241,0.20897 0.002,0.0756 0.0632,-0.27572 0.0649,-0.36963 0.1561,-0.73971 0.25262,-1.10196 0.0343,-0.12868 0.0734,-0.25604 0.11007,-0.38407 0.31131,-1.15473 0.39439,-2.35836 0.82525,-3.484 0.53794,-1.47062 1.08881,-2.93669 1.59438,-4.41855 0.58568,-1.70968 1.07252,-3.43981 1.45361,-5.2064 0.56864,-2.00182 1.04463,-4.03006 1.59145,-6.03815 0.58976,-2.4715 1.22758,-4.92639 1.94686,-7.36258 0.51978,-2.47767 0.90635,-4.97947 1.35398,-7.4707 0.51452,-2.31442 1.15138,-4.62048 2.13328,-6.78479 1.19851,-2.79652 3.8351,-1.66655 2.63659,1.12997 z"
       inkscape:connector-curvature="0" />
    <path
       style="fill:#00ff00;fill-opacity:1;stroke:#00ff00;stroke-opacity:0"
       id="path5906"
       d="m 253.91837,563.84367 c 0.43244,2.31823 0.99216,4.60881 1.55696,6.89776 0.72259,3.14054 1.35297,6.3009 1.83211,9.48778 0.30494,2.92053 0.6531,5.83755 0.90653,8.76351 0.17101,1.88331 0.11766,3.77579 0.38929,5.64815 0.1332,0.79633 0.29748,1.58745 0.38338,2.39083 0.0859,1.47987 0.35785,1.04768 -1.98,-0.48625 0.31024,-0.39378 0.1328,-0.1526 0.50876,-0.74028 1.70676,-2.51872 4.08143,-0.90958 2.37467,1.60914 l 0,0 c -0.74164,1.05888 -0.34823,0.59253 -1.15469,1.42022 -2.79304,-0.99416 -2.5043,-0.0851 -2.60236,-1.51078 -0.0725,-0.7655 -0.25893,-1.51496 -0.36914,-2.27503 -0.27445,-1.92728 -0.25089,-3.86995 -0.40776,-5.80884 -0.24752,-2.86635 -0.59114,-5.72356 -0.88544,-8.58501 -0.46412,-3.09939 -1.08029,-6.17207 -1.78043,-9.22661 -0.58703,-2.38174 -1.17029,-4.76505 -1.61157,-7.17892 -0.43028,-3.01195 2.40941,-3.41762 2.83969,-0.40567 z"
       inkscape:connector-curvature="0" />
    <path
       style="fill:#00ff00;fill-opacity:1;stroke:#00ff00;stroke-opacity:0"
       id="path5908"
       d="m 269.35417,562.32539 c 0.15312,2.44251 0.66554,4.83977 1.11882,7.2394 0.75641,3.74855 0.87389,7.57427 1.15209,11.37546 0.20803,2.97293 0.66361,5.92 0.95436,8.88531 0.11103,1.17037 0.17662,2.34404 0.2209,3.51859 -2.31157,1.23824 -2.2604,1.6154 -3.3293,0.11552 -1.71573,-2.51262 0.65319,-4.13022 2.36892,-1.61761 l 0,0 c 0.4646,0.77541 -1.28801,1.01399 -1.90612,1.60998 -0.042,-1.11721 -0.1038,-2.23359 -0.20926,-3.34686 -0.29242,-2.98884 -0.75434,-5.95903 -0.96039,-8.95592 -0.26933,-3.69278 -0.37856,-7.41001 -1.10989,-11.05213 -0.48612,-2.57454 -1.03397,-5.14834 -1.16865,-7.77174 0,-3.04253 2.86852,-3.04253 2.86852,0 z"
       inkscape:connector-curvature="0" />
    <path
       style="fill:#00ff00;fill-opacity:1;stroke:#00ff00;stroke-opacity:0"
       id="path5910"
       d="m 287.62967,560.80711 c -0.30617,2.70517 -0.36547,5.4309 -0.42648,8.15028 -0.0564,4.19545 0.21303,8.38833 0.34703,12.58105 0.0989,3.23193 0.13968,6.46523 0.16019,9.69849 0.005,1.03431 0.008,2.06865 0.005,3.10297 -2.3e-4,0.0217 -4.6e-4,0.0434 -6.8e-4,0.0651 -0.0338,3.04234 -2.90214,3.01047 -2.86835,-0.0319 l 0,0 c 1.8e-4,-0.0142 3.5e-4,-0.0283 5.2e-4,-0.0425 0.003,-1.02519 4.5e-4,-2.0504 -0.005,-3.07558 -0.0203,-3.20877 -0.0607,-6.4176 -0.15878,-9.62506 -0.13558,-4.24471 -0.40853,-8.48956 -0.34777,-12.73712 0.0638,-2.83342 0.12711,-5.67369 0.45459,-8.49148 0.43028,-3.01195 3.26997,-2.60628 2.83969,0.40567 z"
       inkscape:connector-curvature="0" />
    <path
       style="fill:#00ff00;fill-opacity:1;stroke:#00ff00;stroke-opacity:0"
       id="path5912"
       d="m 306.64495,561.24661 c 0.26065,2.94149 0.57227,5.87868 0.87632,8.81639 0.42277,4.63758 0.83648,9.27631 1.11799,13.92503 0.0867,3.3593 0.35166,6.7052 0.64178,10.0515 0.0754,0.87973 0.15189,1.75937 0.22467,2.63932 0.0815,1.01223 0.10414,0.86699 -2.73596,-0.39189 -0.19545,-0.0866 0.18514,-0.38541 0.27771,-0.57812 1.45693,-2.67102 3.97519,-1.29741 2.51826,1.3736 l 0,0 c -0.96161,-0.0275 -2.89576,0.83802 -2.91877,-0.16716 -0.0725,-0.87617 -0.14864,-1.75203 -0.22371,-2.62798 -0.29227,-3.37107 -0.55916,-6.74193 -0.64727,-10.12603 -0.27858,-4.60805 -0.68964,-9.20609 -1.10799,-13.80313 -0.31382,-3.0355 -0.64751,-6.06996 -0.89155,-9.11153 0,-3.04253 2.86852,-3.04253 2.86852,0 z"
       inkscape:connector-curvature="0" />
  </g>
</svg>
